<svg xmlns="http://www.w3.org/2000/svg" id="a" data-name="Layer 1" viewBox="0 0 117 40"><g><polygon points="17.73 18.9 17.73 15.41 16.2 15.41 6.64 20.75 9.79 20.75 16.17 17 16.17 20.75 17.59 20.75 24.04 17.15 24.04 20.75 25.57 20.75 25.57 15.41 24 15.41 17.73 18.9" fill="#617792"></polygon><path d="M38.61,15.41h-9.9c-.92,0-1.66.75-1.66,1.66v2.02c0,.92.75,1.66,1.66,1.66h9.9c.92,0,1.66-.75,1.66-1.66v-2.02c0-.92-.75-1.66-1.66-1.66ZM38.88,18.95c0,.23-.19.42-.42.42h-9.66c-.23,0-.42-.19-.42-.42v-1.73c0-.23.19-.42.42-.42h9.66c.23,0,.42.19.42.42v1.73Z" fill="#617792"></path><path d="M56.21,15.41h-9.9c-.92,0-1.66.75-1.66,1.66v2.02c0,.92.75,1.66,1.66,1.66h9.9c.92,0,1.66-.75,1.66-1.66v-2.02c0-.92-.75-1.66-1.66-1.66ZM56.48,18.95c0,.23-.19.42-.42.42h-9.66c-.23,0-.42-.19-.42-.42v-1.73c0-.23.19-.42.42-.42h9.66c.23,0,.42.19.42.42v1.73Z" fill="#617792"></path><path d="M85.11,15.41h-9.9c-.92,0-1.66.75-1.66,1.66v2.02c0,.92.75,1.66,1.66,1.66h9.9c.92,0,1.66-.75,1.66-1.66v-2.02c0-.92-.75-1.66-1.66-1.66ZM85.39,18.95c0,.23-.19.42-.42.42h-9.66c-.23,0-.42-.19-.42-.42v-1.73c0-.23.19-.42.42-.42h9.66c.23,0,.42.19.42.42v1.73Z" fill="#617792"></path><path d="M70.48,15.41h-11.18v5.16h1.59v-1.8h9.59c.47,0,.89-.19,1.19-.49.3-.31.49-.73.49-1.19,0-.93-.75-1.68-1.68-1.68ZM69.94,17.44c-.1.09-.23.15-.37.15h-8.21c-.29,0-.52-.24-.52-.52,0-.14.06-.28.15-.37.09-.09.23-.15.37-.15h8.21c.29,0,.52.24.52.52,0,.14-.06.28-.15.37Z" fill="#617792"></path><path d="M101.02,17.64s.13-.1.26-.29c.13-.18.26-.45.26-.78,0-.64-.52-1.16-1.16-1.16h-11.89v5.19h1.61v-1.88h9.11c.75,0,.94.54.94,1.14v.68h1.48v-1.56c0-1.05-.6-1.35-.6-1.35ZM99.82,17.37c-.09.09-.23.15-.37.15h-8.93c-.29,0-.52-.24-.52-.52,0-.15.06-.28.15-.37.1-.1.23-.15.37-.15h8.93c.29,0,.52.23.52.52,0,.15-.06.28-.15.37Z" fill="#617792"></path><polygon points="109.6 13.43 18.8 13.43 16.95 14.55 41.78 14.55 41.78 20.58 43.21 20.58 43.21 14.55 103.19 14.55 103.19 20.58 104.62 20.58 104.62 14.55 109.6 14.55 109.6 13.43" fill="#617792"></polygon></g><path d="M35.91,22.67v3.65c0,.91.74,1.65,1.65,1.65h9.76c.91,0,1.65-.74,1.65-1.65v-3.65h-1.28v3.38c0,.3-.24.54-.54.54h-9.49c-.3,0-.54-.24-.54-.54v-3.38h-1.21Z" fill="#617792"></path><path d="M63.37,22.67v1.33h-11.17c-.18,0-.32.14-.32.32h0c0,.18.14.32.32.32h9.4c.92,0,1.97.75,1.97,1.67h0c0,.92-1.05,1.67-1.97,1.67h-11v-1.29h11.17c.18,0,.32-.14.32-.32v-.12c0-.18-.14-.32-.32-.32h-9.59c-.9,0-1.96-.73-1.96-1.63h0c0-.9,1.06-1.63,1.96-1.63h11.19Z" fill="#617792"></path><path d="M76.11,22.67h-9.57c-.95,0-1.72.77-1.72,1.72v3.59h1.14v-2.03h10.66v2.03h1.21v-3.59c0-.95-.77-1.72-1.72-1.72ZM76.62,24.63h-10.66v-.03c0-.36.29-.65.65-.65h9.35c.36,0,.65.29.65.65v.03Z" fill="#617792"></path></svg>