<?xml version="1.0" encoding="utf-8"?>
<!-- Generator: Adobe Illustrator 27.0.1, SVG Export Plug-In . SVG Version: 6.00 Build 0)  -->
<svg version="1.1" id="Layer_1" xmlns="http://www.w3.org/2000/svg" xmlns:xlink="http://www.w3.org/1999/xlink" x="0px" y="0px"
	 viewBox="0 0 218 85" style="enable-background:new 0 0 218 85;" xml:space="preserve">
<style type="text/css">
	.st0{fill:#771214;}
	.st1{fill:#00AEEF;}
	.st2{fill-rule:evenodd;clip-rule:evenodd;fill:#771214;}
	.st3{fill-rule:evenodd;clip-rule:evenodd;}
</style>
<g>
	<path class="st0" d="M156.3,84.6L156.3,84.6L156.3,84.6z"/>
	<path class="st1" d="M197.1,78.6L197.1,78.6c-0.4-0.5-0.9-0.4-1.3-0.1l0,0C196.2,78.4,196.7,78.3,197.1,78.6z"/>
	<path class="st1" d="M195.8,78.5c0.4,0,0.9,0,1.3,0.1C196.7,78.3,196.2,78.4,195.8,78.5z"/>
	<g>
		<path class="st2" d="M10.2,83H9l-0.2-5.7l-1,5.7H6.7L8,76.2h1.8l0.2,4.7l1.9-4.7h1.8L12.6,83h-1.1l1.1-5.7L10.2,83z M16.7,79.4
			l-1.2-0.1c0.1-0.4,0.4-0.8,0.7-1c0.3-0.3,0.8-0.4,1.3-0.4c0.6,0,1,0.1,1.3,0.4c0.3,0.3,0.4,0.6,0.4,0.9c0,0.1,0,0.3,0,0.5
			c0,0.2-0.1,0.6-0.3,1.3c-0.1,0.6-0.2,1-0.2,1.2c0,0.2,0,0.4,0.1,0.7h-1.2c0-0.2-0.1-0.4-0.1-0.6c-0.2,0.2-0.4,0.4-0.6,0.5
			c-0.2,0.1-0.5,0.2-0.7,0.2c-0.4,0-0.7-0.1-0.9-0.4c-0.3-0.3-0.4-0.6-0.4-1c0-0.5,0.1-0.9,0.4-1.1c0.3-0.3,0.8-0.5,1.4-0.5
			c0.6-0.1,1-0.1,1.2-0.2c0-0.2,0.1-0.3,0.1-0.4c0-0.1,0-0.3-0.1-0.4c-0.1-0.1-0.3-0.1-0.5-0.1c-0.2,0-0.4,0-0.5,0.1
			C16.8,79.1,16.8,79.2,16.7,79.4L16.7,79.4z M17.9,80.6c-0.1,0-0.2,0-0.3,0.1c-0.6,0.1-1,0.2-1.2,0.4c-0.1,0.1-0.2,0.3-0.2,0.5
			c0,0.2,0,0.3,0.1,0.4s0.2,0.2,0.4,0.2c0.2,0,0.4,0,0.5-0.1s0.3-0.2,0.4-0.4c0.1-0.1,0.1-0.4,0.2-0.7L17.9,80.6z M20.8,81.6
			l1.2-0.2c0.1,0.3,0.2,0.5,0.4,0.6c0.1,0.1,0.4,0.2,0.6,0.2s0.5-0.1,0.7-0.2c0.1-0.1,0.2-0.2,0.2-0.3c0-0.1,0-0.2-0.1-0.3
			c-0.1-0.1-0.2-0.1-0.5-0.3c-0.7-0.3-1.2-0.5-1.4-0.6c-0.3-0.2-0.4-0.6-0.4-1s0.1-0.7,0.4-1c0.4-0.4,0.9-0.6,1.6-0.6
			c0.6,0,1,0.1,1.3,0.4c0.3,0.2,0.5,0.5,0.6,0.9l-1.1,0.2c-0.1-0.2-0.1-0.3-0.3-0.4c-0.2-0.1-0.4-0.2-0.6-0.2c-0.3,0-0.4,0-0.5,0.1
			c-0.1,0.1-0.2,0.2-0.2,0.3c0,0.1,0.1,0.2,0.2,0.3c0.1,0,0.3,0.1,0.7,0.3c0.6,0.2,1,0.4,1.2,0.6c0.3,0.3,0.4,0.6,0.4,0.9
			c0,0.5-0.2,0.9-0.5,1.2c-0.4,0.3-0.9,0.5-1.5,0.5c-0.6,0-1.1-0.1-1.5-0.4C21.2,82.4,20.9,82.1,20.8,81.6L20.8,81.6z M27.2,79
			l0.2-1H28l0.1-0.8l1.4-0.9L29.2,78H30l-0.2,1H29l-0.4,2.1c-0.1,0.4-0.1,0.6-0.1,0.6c0,0.1,0,0.2,0.1,0.2c0.1,0.1,0.2,0.1,0.3,0.1
			c0.1,0,0.2,0,0.4,0l-0.2,1c-0.2,0-0.4,0.1-0.6,0.1c-0.4,0-0.7-0.1-0.9-0.3c-0.2-0.2-0.3-0.4-0.3-0.8c0-0.1,0.1-0.5,0.2-1l0.4-2
			H27.2z M35.3,80.9h-3c0,0,0,0.1,0,0.1c0,0.3,0.1,0.6,0.3,0.8c0.2,0.2,0.4,0.3,0.6,0.3c0.4,0,0.7-0.2,1-0.7l1.1,0.2
			c-0.2,0.5-0.5,0.8-0.9,1.1c-0.4,0.2-0.8,0.4-1.2,0.4c-0.6,0-1.1-0.2-1.5-0.6c-0.4-0.4-0.6-1-0.6-1.7c0-0.7,0.2-1.3,0.5-1.8
			c0.5-0.7,1.1-1.1,2-1.1c0.5,0,1,0.2,1.3,0.6c0.3,0.4,0.5,0.9,0.5,1.6C35.4,80.4,35.4,80.6,35.3,80.9L35.3,80.9z M34.3,80.1
			c0-0.1,0-0.1,0-0.1c0-0.4-0.1-0.6-0.2-0.8c-0.1-0.2-0.4-0.3-0.6-0.3S33,79,32.8,79.2c-0.2,0.2-0.3,0.5-0.4,0.9H34.3z M37.8,78h1.1
			L38.7,79c0.4-0.7,0.9-1.1,1.4-1.1c0.2,0,0.4,0,0.6,0.1l-0.5,1.1c-0.1,0-0.2-0.1-0.4-0.1c-0.2,0-0.4,0.1-0.6,0.3
			c-0.2,0.2-0.4,0.4-0.5,0.7c-0.1,0.3-0.3,0.8-0.4,1.4L38,82.9h-1.2L37.8,78z M41.3,81.6l1.2-0.2c0.1,0.3,0.2,0.5,0.4,0.6
			c0.1,0.1,0.4,0.2,0.6,0.2c0.3,0,0.5-0.1,0.7-0.2c0.1-0.1,0.2-0.2,0.2-0.3c0-0.1,0-0.2-0.1-0.3c-0.1-0.1-0.2-0.1-0.5-0.3
			c-0.7-0.3-1.2-0.5-1.4-0.6c-0.3-0.2-0.4-0.6-0.4-1s0.1-0.7,0.4-1c0.4-0.4,0.9-0.6,1.6-0.6c0.6,0,1,0.1,1.3,0.4
			c0.3,0.2,0.5,0.5,0.6,0.9l-1.1,0.2c-0.1-0.2-0.1-0.3-0.3-0.4c-0.2-0.1-0.4-0.2-0.6-0.2s-0.4,0-0.5,0.1c-0.1,0.1-0.2,0.2-0.2,0.3
			c0,0.1,0.1,0.2,0.2,0.3c0.1,0,0.3,0.1,0.7,0.3c0.6,0.2,1,0.4,1.2,0.6c0.3,0.3,0.4,0.6,0.4,0.9c0,0.5-0.2,0.9-0.5,1.2
			c-0.4,0.3-0.9,0.5-1.5,0.5c-0.6,0-1.1-0.1-1.5-0.4C41.6,82.4,41.4,82.1,41.3,81.6L41.3,81.6z M51.1,76.2h1.2l-0.2,1.2h-1.2
			L51.1,76.2z M50.7,78h1.2L51,83h-1.2L50.7,78z M54.3,78h1.1l-0.1,0.6c0.3-0.3,0.6-0.5,0.8-0.6c0.3-0.1,0.5-0.2,0.8-0.2
			c0.4,0,0.7,0.1,0.9,0.4c0.2,0.2,0.3,0.5,0.3,0.9c0,0.2-0.1,0.5-0.1,1L57.4,83h-1.2l0.5-2.8c0.1-0.4,0.1-0.7,0.1-0.8
			c0-0.2,0-0.3-0.1-0.4c-0.1-0.1-0.2-0.1-0.4-0.1c-0.2,0-0.4,0.1-0.6,0.3c-0.2,0.2-0.4,0.4-0.5,0.6c-0.1,0.2-0.2,0.6-0.3,1.2l-0.4,2
			h-1.2L54.3,78z M63.1,78h1.1l-0.1,0.6c0.4-0.5,0.9-0.7,1.4-0.7c0.3,0,0.6,0.1,0.8,0.2c0.2,0.1,0.3,0.4,0.4,0.6
			c0.1-0.3,0.4-0.5,0.7-0.6s0.6-0.3,0.9-0.3c0.4,0,0.6,0.1,0.8,0.3c0.2,0.2,0.3,0.5,0.3,0.9c0,0.2,0,0.5-0.1,0.9l-0.6,3h-1.2l0.6-3
			c0.1-0.4,0.1-0.6,0.1-0.6c0-0.1,0-0.3-0.1-0.3s-0.2-0.1-0.3-0.1c-0.3,0-0.6,0.2-0.8,0.5c-0.2,0.3-0.3,0.7-0.4,1.3L66,82.9h-1.2
			l0.6-3c0.1-0.3,0.1-0.6,0.1-0.7c0-0.1,0-0.2-0.1-0.3s-0.2-0.1-0.3-0.1c-0.1,0-0.3,0-0.4,0.1c-0.1,0.1-0.3,0.2-0.4,0.4
			s-0.2,0.4-0.3,0.6c0,0.1-0.1,0.4-0.2,0.8l-0.4,2.3h-1.2L63.1,78z M71.2,80.9c0-0.9,0.2-1.6,0.7-2.2c0.5-0.5,1.1-0.8,1.8-0.8
			c0.7,0,1.2,0.2,1.5,0.6c0.4,0.4,0.6,0.9,0.6,1.6c0,0.8-0.2,1.5-0.7,2.1c-0.5,0.6-1.1,0.9-1.9,0.9c-0.4,0-0.8-0.1-1.1-0.3
			s-0.6-0.5-0.7-0.8C71.3,81.7,71.2,81.3,71.2,80.9L71.2,80.9z M74.6,80c0-0.3-0.1-0.6-0.3-0.8c-0.2-0.2-0.4-0.3-0.6-0.3
			c-0.3,0-0.5,0.1-0.7,0.3c-0.2,0.2-0.4,0.4-0.5,0.8c-0.1,0.3-0.2,0.7-0.2,0.9c0,0.4,0.1,0.6,0.3,0.9c0.2,0.2,0.4,0.3,0.7,0.3
			c0.3,0,0.6-0.2,0.8-0.5C74.5,81.1,74.6,80.6,74.6,80L74.6,80z M81.6,83h-1.1l0.1-0.5c-0.2,0.2-0.4,0.4-0.6,0.5
			c-0.2,0.1-0.5,0.1-0.7,0.1c-0.5,0-0.8-0.2-1.1-0.5c-0.3-0.4-0.4-0.9-0.4-1.5c0-0.8,0.2-1.5,0.6-2.1s1-1,1.6-1
			c0.6,0,1.1,0.3,1.4,0.8l0.5-2.5h1.2L81.6,83z M78.8,81c0,0.4,0.1,0.6,0.3,0.8c0.2,0.2,0.4,0.3,0.6,0.3c0.2,0,0.4-0.1,0.6-0.3
			c0.2-0.2,0.4-0.4,0.5-0.8c0.1-0.3,0.2-0.7,0.2-1c0-0.4-0.1-0.6-0.3-0.9c-0.2-0.2-0.4-0.3-0.6-0.3c-0.4,0-0.6,0.2-0.9,0.6
			C78.9,80,78.8,80.5,78.8,81L78.8,81z M88.2,80.9h-3c0,0,0,0.1,0,0.1c0,0.3,0.1,0.6,0.3,0.8c0.2,0.2,0.4,0.3,0.6,0.3
			c0.4,0,0.7-0.2,1-0.7l1.1,0.2c-0.2,0.5-0.5,0.8-0.9,1.1c-0.4,0.2-0.8,0.4-1.2,0.4c-0.6,0-1.1-0.2-1.5-0.6c-0.4-0.4-0.6-1-0.6-1.7
			c0-0.7,0.2-1.3,0.5-1.8c0.5-0.7,1.1-1.1,2-1.1c0.5,0,1,0.2,1.3,0.6c0.3,0.4,0.5,0.9,0.5,1.6C88.3,80.4,88.3,80.6,88.2,80.9
			L88.2,80.9z M87.2,80.1c0-0.1,0-0.1,0-0.1c0-0.4-0.1-0.6-0.2-0.8c-0.1-0.2-0.4-0.3-0.6-0.3c-0.3,0-0.5,0.1-0.7,0.3
			c-0.2,0.2-0.3,0.5-0.4,0.9H87.2z M90.7,78h1.1L91.7,79c0.4-0.7,0.9-1.1,1.4-1.1c0.2,0,0.4,0,0.6,0.1l-0.5,1.1
			c-0.1,0-0.2-0.1-0.4-0.1c-0.2,0-0.4,0.1-0.6,0.3c-0.2,0.2-0.4,0.4-0.5,0.7c-0.1,0.3-0.3,0.8-0.4,1.4L91,82.9h-1.2L90.7,78z
			 M95.3,78h1.1l-0.1,0.6c0.3-0.3,0.6-0.5,0.8-0.6c0.3-0.1,0.5-0.2,0.8-0.2c0.4,0,0.7,0.1,0.9,0.4c0.2,0.2,0.3,0.5,0.3,0.9
			c0,0.2-0.1,0.5-0.1,1L98.4,83h-1.2l0.5-2.8c0.1-0.4,0.1-0.7,0.1-0.8c0-0.2,0-0.3-0.1-0.4c-0.1-0.1-0.2-0.1-0.4-0.1
			c-0.2,0-0.4,0.1-0.6,0.3c-0.2,0.2-0.4,0.4-0.5,0.6c-0.1,0.2-0.2,0.6-0.3,1.2l-0.4,2h-1.2L95.3,78z M101,79.9h2.4l-0.2,1.3h-2.4
			L101,79.9z M108.9,83h-1.1l0.1-0.5c-0.2,0.2-0.4,0.4-0.6,0.5c-0.2,0.1-0.5,0.1-0.7,0.1c-0.5,0-0.8-0.2-1.1-0.5
			c-0.3-0.4-0.4-0.9-0.4-1.5c0-0.8,0.2-1.5,0.6-2.1s1-1,1.6-1c0.6,0,1.1,0.3,1.4,0.8l0.5-2.5h1.2L108.9,83z M106.1,81
			c0,0.4,0.1,0.6,0.3,0.8c0.2,0.2,0.4,0.3,0.6,0.3c0.2,0,0.4-0.1,0.6-0.3c0.2-0.2,0.4-0.4,0.5-0.8c0.1-0.3,0.2-0.7,0.2-1
			c0-0.4-0.1-0.6-0.3-0.9c-0.2-0.2-0.4-0.3-0.6-0.3c-0.4,0-0.6,0.2-0.9,0.6C106.2,80,106.1,80.5,106.1,81L106.1,81z M112.9,79.4
			l-1.2-0.1c0.1-0.4,0.4-0.8,0.7-1c0.3-0.3,0.8-0.4,1.3-0.4c0.6,0,1,0.1,1.3,0.4c0.3,0.3,0.4,0.6,0.4,0.9c0,0.1,0,0.3,0,0.5
			c0,0.2-0.1,0.6-0.3,1.3c-0.1,0.6-0.2,1-0.2,1.2c0,0.2,0,0.4,0.1,0.7h-1.2c0-0.2-0.1-0.4-0.1-0.6c-0.2,0.2-0.4,0.4-0.6,0.5
			c-0.2,0.1-0.5,0.2-0.7,0.2c-0.4,0-0.7-0.1-0.9-0.4c-0.3-0.3-0.4-0.6-0.4-1c0-0.5,0.1-0.9,0.4-1.1c0.3-0.3,0.8-0.5,1.4-0.5
			c0.6-0.1,1-0.1,1.2-0.2c0-0.2,0.1-0.3,0.1-0.4c0-0.1,0-0.3-0.1-0.4c-0.1-0.1-0.3-0.1-0.5-0.1c-0.2,0-0.4,0-0.5,0.1
			C113.1,79.1,113,79.2,112.9,79.4L112.9,79.4z M114.1,80.6c-0.1,0-0.2,0-0.3,0.1c-0.6,0.1-1,0.2-1.2,0.4c-0.1,0.1-0.2,0.3-0.2,0.5
			c0,0.2,0,0.3,0.1,0.4s0.2,0.2,0.4,0.2c0.2,0,0.4,0,0.5-0.1s0.3-0.2,0.4-0.4c0.1-0.1,0.1-0.4,0.2-0.7L114.1,80.6z M117.6,78h1.2
			l0.3,2.5c0.1,0.6,0.1,1.1,0.1,1.3c0.1-0.5,0.4-1,0.6-1.6l1.1-2.2h1.3l-2.8,5.4c-0.2,0.5-0.4,0.8-0.5,0.9c-0.1,0.2-0.3,0.3-0.5,0.4
			c-0.2,0.1-0.4,0.1-0.7,0.1c-0.3,0-0.5,0-0.9-0.1l0.1-1c0.1,0,0.3,0.1,0.4,0.1c0.4,0,0.7-0.3,0.9-0.9L117.6,78z M126.4,78h1.1
			l-0.2,0.9c0.4-0.7,0.9-1.1,1.4-1.1c0.2,0,0.4,0,0.6,0.1l-0.5,1.1c-0.1,0-0.2-0.1-0.4-0.1c-0.2,0-0.4,0.1-0.6,0.3
			c-0.2,0.2-0.4,0.4-0.5,0.7c-0.1,0.3-0.3,0.8-0.4,1.4l-0.3,1.5h-1.2L126.4,78z M130.2,80.9c0-0.9,0.2-1.6,0.7-2.2
			c0.5-0.5,1.1-0.8,1.8-0.8c0.7,0,1.2,0.2,1.5,0.6c0.4,0.4,0.6,0.9,0.6,1.6c0,0.8-0.2,1.5-0.7,2.1c-0.5,0.6-1.1,0.9-1.9,0.9
			c-0.4,0-0.8-0.1-1.1-0.3c-0.3-0.2-0.6-0.5-0.7-0.8C130.3,81.7,130.2,81.3,130.2,80.9L130.2,80.9z M133.7,80c0-0.3-0.1-0.6-0.3-0.8
			c-0.2-0.2-0.4-0.3-0.6-0.3s-0.5,0.1-0.7,0.3c-0.2,0.2-0.4,0.4-0.5,0.8c-0.1,0.3-0.2,0.7-0.2,0.9c0,0.4,0.1,0.6,0.3,0.9
			c0.2,0.2,0.4,0.3,0.6,0.3c0.3,0,0.6-0.2,0.8-0.5C133.5,81.1,133.7,80.6,133.7,80L133.7,80z M136.7,80.9c0-0.9,0.2-1.6,0.7-2.2
			c0.5-0.5,1.1-0.8,1.8-0.8c0.7,0,1.2,0.2,1.5,0.6s0.6,0.9,0.6,1.6c0,0.8-0.2,1.5-0.7,2.1c-0.5,0.6-1.1,0.9-1.9,0.9
			c-0.4,0-0.8-0.1-1.1-0.3c-0.3-0.2-0.6-0.5-0.7-0.8C136.8,81.7,136.7,81.3,136.7,80.9L136.7,80.9z M140.1,80c0-0.3-0.1-0.6-0.3-0.8
			c-0.2-0.2-0.4-0.3-0.6-0.3c-0.3,0-0.5,0.1-0.7,0.3c-0.2,0.2-0.4,0.4-0.5,0.8c-0.1,0.3-0.2,0.7-0.2,0.9c0,0.4,0.1,0.6,0.3,0.9
			c0.2,0.2,0.4,0.3,0.7,0.3c0.3,0,0.6-0.2,0.8-0.5C140,81.1,140.1,80.6,140.1,80L140.1,80z M146.1,78l-0.2,1H145l-0.8,4h-1.2l0.8-4
			h-0.7l0.2-1h0.7l0.1-0.5c0.1-0.4,0.1-0.7,0.2-0.8c0.1-0.2,0.2-0.4,0.4-0.5s0.4-0.2,0.7-0.2c0.4,0,0.8,0.1,1.2,0.2l-0.2,0.9
			c-0.3-0.1-0.5-0.2-0.7-0.2c-0.1,0-0.3,0-0.3,0.1c0,0.1-0.1,0.2-0.1,0.5l-0.1,0.3L146.1,78L146.1,78z M147.1,76.2h1.2l-0.2,1.2
			h-1.2L147.1,76.2z M146.7,78h1.2L147,83h-1.2L146.7,78z M150.3,78h1.1l-0.1,0.6c0.3-0.3,0.6-0.5,0.8-0.6c0.3-0.1,0.5-0.2,0.8-0.2
			c0.4,0,0.7,0.1,0.9,0.4c0.2,0.2,0.3,0.5,0.3,0.9c0,0.2-0.1,0.5-0.1,1l-0.5,2.8h-1.2l0.5-2.8c0.1-0.4,0.1-0.7,0.1-0.8
			c0-0.2,0-0.3-0.1-0.4c-0.1-0.1-0.2-0.1-0.4-0.1c-0.2,0-0.4,0.1-0.6,0.3c-0.2,0.2-0.4,0.4-0.5,0.6c-0.1,0.2-0.2,0.6-0.3,1.2l-0.4,2
			h-1.2L150.3,78z M155.7,83.2l1.3,0.2c0,0.1,0,0.3,0.1,0.3c0,0.1,0.1,0.1,0.2,0.2c0.1,0,0.2,0.1,0.4,0.1c0.3,0,0.5-0.1,0.6-0.2
			c0.1-0.1,0.2-0.2,0.3-0.4c0-0.1,0.1-0.4,0.2-0.8l0-0.2c-0.4,0.4-0.9,0.6-1.4,0.6c-0.4,0-0.8-0.2-1.1-0.5c-0.3-0.3-0.4-0.8-0.4-1.5
			c0-0.6,0.1-1.1,0.3-1.6s0.5-0.9,0.8-1.1c0.4-0.3,0.7-0.4,1.1-0.4c0.3,0,0.6,0.1,0.8,0.3c0.3,0.2,0.4,0.4,0.6,0.7l0.2-0.9h1.1
			l-0.7,4.1c-0.1,0.7-0.3,1.1-0.3,1.4c-0.1,0.3-0.2,0.5-0.3,0.7c-0.1,0.2-0.3,0.3-0.4,0.4s-0.4,0.2-0.6,0.3c-0.3,0-0.5,0.1-0.8,0.1
			c-0.6,0-1.1-0.1-1.4-0.4c-0.3-0.2-0.5-0.6-0.5-1.2C155.7,83.4,155.7,83.3,155.7,83.2L155.7,83.2z M157.1,80.8
			c0,0.4,0.1,0.7,0.2,0.9c0.1,0.2,0.3,0.3,0.6,0.3c0.2,0,0.4-0.1,0.6-0.3c0.2-0.2,0.4-0.4,0.5-0.8c0.1-0.3,0.2-0.6,0.2-0.9
			c0-0.4-0.1-0.6-0.3-0.9c-0.2-0.2-0.4-0.3-0.6-0.3c-0.2,0-0.4,0.1-0.6,0.3c-0.2,0.2-0.3,0.5-0.5,0.9
			C157.2,80.3,157.1,80.6,157.1,80.8L157.1,80.8z M164.5,81.6l1.2-0.2c0.1,0.3,0.2,0.5,0.4,0.6c0.1,0.1,0.4,0.2,0.6,0.2
			c0.3,0,0.5-0.1,0.7-0.2c0.1-0.1,0.2-0.2,0.2-0.3c0-0.1,0-0.2-0.1-0.3c-0.1-0.1-0.2-0.1-0.5-0.3c-0.7-0.3-1.2-0.5-1.4-0.6
			c-0.3-0.2-0.4-0.6-0.4-1s0.1-0.7,0.4-1c0.4-0.4,0.9-0.6,1.6-0.6c0.6,0,1,0.1,1.3,0.4c0.3,0.2,0.5,0.5,0.6,0.9l-1.1,0.2
			c-0.1-0.2-0.1-0.3-0.3-0.4c-0.2-0.1-0.4-0.2-0.6-0.2s-0.4,0-0.5,0.1c-0.1,0.1-0.2,0.2-0.2,0.3c0,0.1,0.1,0.2,0.2,0.3
			c0.1,0,0.3,0.1,0.7,0.3c0.6,0.2,1,0.4,1.2,0.6c0.3,0.3,0.4,0.6,0.4,0.9c0,0.5-0.2,0.9-0.5,1.2c-0.4,0.3-0.9,0.5-1.5,0.5
			c-0.6,0-1.1-0.1-1.5-0.4C164.8,82.4,164.6,82.1,164.5,81.6L164.5,81.6z M171,78h1.2l0.3,2.5c0.1,0.6,0.1,1.1,0.1,1.3
			c0.1-0.5,0.4-1,0.6-1.6l1.1-2.2h1.3l-2.8,5.4c-0.2,0.5-0.4,0.8-0.5,0.9c-0.1,0.2-0.3,0.3-0.5,0.4c-0.2,0.1-0.4,0.1-0.7,0.1
			c-0.3,0-0.5,0-0.9-0.1l0.1-1c0.1,0,0.3,0.1,0.4,0.1c0.4,0,0.7-0.3,0.9-0.9L171,78z M176.4,81.6l1.2-0.2c0.1,0.3,0.2,0.5,0.4,0.6
			c0.1,0.1,0.4,0.2,0.6,0.2s0.5-0.1,0.7-0.2c0.1-0.1,0.2-0.2,0.2-0.3c0-0.1,0-0.2-0.1-0.3c-0.1-0.1-0.2-0.1-0.5-0.3
			c-0.7-0.3-1.2-0.5-1.4-0.6c-0.3-0.2-0.4-0.6-0.4-1s0.1-0.7,0.4-1c0.4-0.4,0.9-0.6,1.6-0.6c0.6,0,1,0.1,1.3,0.4
			c0.3,0.2,0.5,0.5,0.6,0.9l-1.1,0.2c-0.1-0.2-0.1-0.3-0.3-0.4c-0.2-0.1-0.4-0.2-0.6-0.2s-0.4,0-0.5,0.1c-0.1,0.1-0.2,0.2-0.2,0.3
			c0,0.1,0.1,0.2,0.2,0.3c0.1,0,0.3,0.1,0.7,0.3c0.6,0.2,1,0.4,1.2,0.6c0.3,0.3,0.4,0.6,0.4,0.9c0,0.5-0.2,0.9-0.5,1.2
			c-0.4,0.3-0.9,0.5-1.5,0.5c-0.6,0-1.1-0.1-1.5-0.4C176.7,82.4,176.5,82.1,176.4,81.6L176.4,81.6z M182.8,79l0.2-1h0.6l0.1-0.8
			l1.4-0.9l-0.3,1.7h0.7l-0.2,1h-0.7l-0.4,2.1c-0.1,0.4-0.1,0.6-0.1,0.6c0,0.1,0,0.2,0.1,0.2c0.1,0.1,0.2,0.1,0.3,0.1
			c0.1,0,0.2,0,0.4,0l-0.2,1c-0.2,0-0.4,0.1-0.6,0.1c-0.4,0-0.7-0.1-0.9-0.3c-0.2-0.2-0.3-0.4-0.3-0.8c0-0.1,0.1-0.5,0.2-1l0.4-2
			H182.8z M190.9,80.9h-3c0,0,0,0.1,0,0.1c0,0.3,0.1,0.6,0.3,0.8c0.2,0.2,0.4,0.3,0.6,0.3c0.4,0,0.7-0.2,1-0.7l1.1,0.2
			c-0.2,0.5-0.5,0.8-0.9,1.1c-0.4,0.2-0.8,0.4-1.2,0.4c-0.6,0-1.1-0.2-1.5-0.6c-0.4-0.4-0.6-1-0.6-1.7c0-0.7,0.2-1.3,0.5-1.8
			c0.5-0.7,1.1-1.1,2-1.1c0.5,0,1,0.2,1.3,0.6c0.3,0.4,0.5,0.9,0.5,1.6C191,80.4,190.9,80.6,190.9,80.9L190.9,80.9z M189.9,80.1
			c0-0.1,0-0.1,0-0.1c0-0.4-0.1-0.6-0.2-0.8c-0.1-0.2-0.4-0.3-0.6-0.3c-0.3,0-0.5,0.1-0.7,0.3c-0.2,0.2-0.3,0.5-0.4,0.9H189.9z
			 M193.4,78h1.1l-0.1,0.6c0.4-0.5,0.9-0.7,1.4-0.7c0.3,0,0.6,0.1,0.8,0.2c0.2,0.1,0.3,0.4,0.4,0.6c0.1-0.3,0.4-0.5,0.7-0.6
			c0.3-0.2,0.6-0.3,0.9-0.3c0.4,0,0.6,0.1,0.8,0.3c0.2,0.2,0.3,0.5,0.3,0.9c0,0.2,0,0.5-0.1,0.9l-0.6,3h-1.2l0.6-3
			c0.1-0.4,0.1-0.6,0.1-0.6c0-0.1,0-0.3-0.1-0.3c-0.1-0.1-0.2-0.1-0.3-0.1c-0.3,0-0.6,0.2-0.8,0.5c-0.2,0.3-0.3,0.7-0.4,1.3
			l-0.4,2.2h-1.2l0.6-3c0.1-0.3,0.1-0.6,0.1-0.7c0-0.1,0-0.2-0.1-0.3c-0.1-0.1-0.2-0.1-0.3-0.1c-0.1,0-0.3,0-0.4,0.1
			s-0.3,0.2-0.4,0.4c-0.1,0.1-0.2,0.4-0.3,0.6c0,0.1-0.1,0.4-0.2,0.8l-0.4,2.3h-1.2L193.4,78z M201.2,81.6l1.2-0.2
			c0.1,0.3,0.2,0.5,0.4,0.6c0.1,0.1,0.4,0.2,0.6,0.2c0.3,0,0.5-0.1,0.7-0.2c0.1-0.1,0.2-0.2,0.2-0.3c0-0.1,0-0.2-0.1-0.3
			c-0.1-0.1-0.2-0.1-0.5-0.3c-0.7-0.3-1.2-0.5-1.4-0.6c-0.3-0.2-0.4-0.6-0.4-1s0.1-0.7,0.4-1c0.4-0.4,0.9-0.6,1.6-0.6
			c0.6,0,1,0.1,1.3,0.4c0.3,0.2,0.5,0.5,0.6,0.9l-1.1,0.2c-0.1-0.2-0.1-0.3-0.3-0.4c-0.2-0.1-0.4-0.2-0.6-0.2c-0.3,0-0.4,0-0.5,0.1
			c-0.1,0.1-0.2,0.2-0.2,0.3c0,0.1,0.1,0.2,0.2,0.3c0.1,0,0.3,0.1,0.7,0.3c0.6,0.2,1,0.4,1.2,0.6c0.3,0.3,0.4,0.6,0.4,0.9
			c0,0.5-0.2,0.9-0.5,1.2c-0.4,0.3-0.9,0.5-1.5,0.5s-1.1-0.1-1.5-0.4C201.5,82.4,201.3,82.1,201.2,81.6"/>
	</g>
	<polyline class="st2" points="31.4,29.9 30.2,38.3 23.2,38.3 18.5,71.9 6.6,71.9 11.3,38.3 4.3,38.3 5.5,29.9 31.4,29.9 	"/>
	<path class="st2" d="M47.9,58.1L47,64.3l-2.9,1.6l2.5,6.1h-8.9l-0.9-2c-3.2,1.9-6.1,2.8-8.8,2.8c-2.8,0-4.8-0.9-6-2.6
		s-1.7-3.9-1.4-6.4c0.3-2,0.9-3.5,1.9-4.7c1-1.1,2.5-2.1,4.3-2.8c-2.3-1.7-3.2-4.1-2.8-7c0.3-2.5,1.5-4.6,3.5-6.2
		c2-1.5,4.6-2.3,7.7-2.3c2.8,0,5,0.8,6.4,2.3c1.4,1.5,2,3.5,1.7,5.8c-0.3,2.5-1.6,4.7-3.9,6.6l2.5,5.9L47.9,58.1z M34,51.6
		c1.3-1.3,2-2.6,2.2-3.9c0.1-0.5,0-1-0.3-1.5c-0.3-0.4-0.7-0.6-1.2-0.6c-0.5,0-0.9,0.2-1.3,0.5c-0.3,0.3-0.5,0.8-0.6,1.5
		C32.6,49.1,33,50.4,34,51.6L34,51.6z M34.2,65.8l-2.4-4.9c-1.3,1-2,2.1-2.2,3.3c-0.1,0.9,0,1.5,0.3,1.9c0.3,0.4,0.8,0.6,1.5,0.6
		C32.2,66.8,33.1,66.5,34.2,65.8"/>
	<path class="st2" d="M76.8,43.2h-11l0.4-3.1c0.2-1.5,0.2-2.4,0-2.8s-0.6-0.6-1.3-0.6c-0.7,0-1.3,0.3-1.7,0.8
		c-0.4,0.5-0.7,1.3-0.9,2.4c-0.2,1.4-0.1,2.4,0.2,3.1c0.3,0.7,1.3,1.6,3,2.6c4.9,2.9,7.8,5.3,8.9,7.1c1.1,1.9,1.4,4.8,0.8,8.9
		c-0.4,3-1.1,5.2-2.1,6.6c-1,1.4-2.6,2.6-4.9,3.5c-2.3,1-4.9,1.4-7.8,1.4c-3.2,0-5.8-0.6-7.9-1.7s-3.4-2.5-3.8-4.2
		c-0.5-1.7-0.5-4.1,0-7.3l0.4-2.8h11l-0.7,5.1c-0.2,1.6-0.2,2.6,0,3c0.3,0.5,0.8,0.7,1.5,0.7c0.8,0,1.4-0.3,1.9-0.9
		c0.5-0.6,0.8-1.4,0.9-2.5c0.4-2.5,0.2-4.1-0.4-4.8c-0.6-0.8-2.3-2-5-3.8c-2.7-1.8-4.4-3.1-5.3-3.9c-0.8-0.8-1.5-1.9-1.9-3.4
		c-0.4-1.4-0.5-3.3-0.2-5.5c0.5-3.2,1.2-5.6,2.3-7c1.1-1.5,2.7-2.6,4.8-3.5c2.1-0.8,4.6-1.3,7.4-1.3c3.1,0,5.6,0.5,7.7,1.4
		c2,0.9,3.3,2.1,3.8,3.5c0.5,1.4,0.5,3.8,0.1,7.1L76.8,43.2"/>
	<path class="st3" d="M84,29.5h5.8c3.9,0,6.5,0.1,7.8,0.4c1.3,0.2,2.4,0.8,3,1.8c0.7,1,0.9,2.5,0.5,4.6c-0.4,1.9-0.9,3.2-1.6,3.9
		c-0.7,0.7-2,1.1-3.8,1.2c1.6,0.3,2.6,0.7,3.1,1.3c0.5,0.5,0.7,1,0.8,1.5c0.1,0.4-0.1,1.7-0.5,3.6l-1.2,6.5h-7.7l1.5-8.2
		c0.3-1.3,0.3-2.1,0-2.5c-0.2-0.3-0.9-0.5-2-0.5l-2,11.1h-8.3L84,29.5z M91.5,33.7l-1,5.5c0.9,0,1.6-0.1,2-0.3
		c0.4-0.2,0.7-0.8,0.9-1.9l0.3-1.4c0.1-0.8,0.1-1.3-0.3-1.5C93.1,33.8,92.4,33.7,91.5,33.7L91.5,33.7z M120.7,43.9
		c-0.5,2.5-0.8,4.2-1.2,5.3c-0.3,1-1,2-1.9,2.8c-0.9,0.9-2.1,1.5-3.6,2c-1.4,0.5-3,0.7-4.8,0.7c-1.7,0-3.2-0.2-4.4-0.6
		c-1.3-0.4-2.3-1.1-2.9-1.9c-0.7-0.9-1-1.8-1-2.8c0-1,0.3-2.8,0.7-5.3l0.8-4.2c0.5-2.5,0.8-4.2,1.2-5.3c0.3-1,1-2,1.9-2.8
		c0.9-0.9,2.1-1.5,3.6-2c1.4-0.5,3-0.7,4.8-0.7c1.7,0,3.2,0.2,4.5,0.6c1.3,0.4,2.3,1.1,2.9,1.9c0.7,0.9,1,1.8,1,2.8
		c0,1-0.3,2.8-0.7,5.3L120.7,43.9z M113.9,35.8c0.2-1.1,0.3-1.9,0.2-2.2c-0.1-0.3-0.4-0.5-0.9-0.5c-0.4,0-0.8,0.1-1,0.4
		c-0.3,0.3-0.5,1-0.8,2.3l-2.1,11.5c-0.3,1.4-0.4,2.3-0.3,2.6c0.1,0.3,0.4,0.5,0.9,0.5c0.5,0,0.9-0.2,1.2-0.6
		c0.2-0.4,0.5-1.3,0.7-2.8L113.9,35.8z M141.5,43.9c-0.5,2.5-0.8,4.2-1.2,5.3c-0.3,1-1,2-1.9,2.8c-0.9,0.9-2.1,1.5-3.6,2
		c-1.4,0.5-3,0.7-4.8,0.7c-1.7,0-3.2-0.2-4.4-0.6c-1.3-0.4-2.3-1.1-2.9-1.9c-0.7-0.9-1-1.8-1-2.8c0-1,0.3-2.8,0.7-5.3l0.8-4.2
		c0.5-2.5,0.8-4.2,1.2-5.3c0.3-1,1-2,1.9-2.8c0.9-0.9,2.1-1.5,3.6-2c1.4-0.5,3-0.7,4.8-0.7c1.7,0,3.2,0.2,4.4,0.6
		c1.3,0.4,2.3,1.1,2.9,1.9c0.7,0.9,1,1.8,1,2.8c0,1-0.3,2.8-0.7,5.3L141.5,43.9z M134.7,35.8c0.2-1.1,0.3-1.9,0.2-2.2
		c-0.1-0.3-0.4-0.5-0.9-0.5c-0.4,0-0.8,0.1-1,0.4c-0.3,0.3-0.5,1-0.8,2.3l-2.1,11.5c-0.3,1.4-0.4,2.3-0.3,2.6
		c0.1,0.3,0.4,0.5,0.9,0.5c0.5,0,0.9-0.2,1.2-0.6c0.2-0.4,0.5-1.3,0.7-2.8L134.7,35.8z M146.1,29.5h14l-0.9,4.9h-5.7l-0.9,4.7h5.1
		l-0.9,4.7h-5.1l-1.9,10.4h-8.3L146.1,29.5z M169.2,29.5l-4.5,24.7h-8.3l4.5-24.7H169.2z M189.7,29.5l-4.5,24.7H178l-2.3-11.2
		l-2,11.2h-6.9l4.5-24.7h6.9l2.6,11.1l2-11.1H189.7z M209.2,38.6h-8.3l0.4-2.2c0.3-1.4,0.4-2.3,0.3-2.6c-0.1-0.4-0.4-0.5-1-0.5
		c-0.5,0-0.9,0.1-1.1,0.5c-0.2,0.3-0.5,1.1-0.7,2.3l-2.1,11.8c-0.2,1.1-0.3,1.8-0.1,2.2s0.4,0.5,1,0.5c0.6,0,1-0.2,1.3-0.6
		c0.3-0.4,0.5-1.2,0.7-2.3l0.5-2.9h-1.6l0.7-3.8h9.6l-2.4,13.2h-5.2l-0.4-1.8c-0.7,0.8-1.5,1.3-2.4,1.7c-0.9,0.4-2,0.6-3.1,0.6
		c-1.4,0-2.6-0.3-3.8-0.8c-1.1-0.5-1.9-1.2-2.4-1.9c-0.5-0.8-0.7-1.6-0.7-2.4c0-0.9,0.1-2.1,0.5-3.8l1.3-7.3
		c0.4-2.4,0.9-4.1,1.4-5.1c0.5-1.1,1.6-2,3.3-2.9s3.8-1.3,6.2-1.3c2.4,0,4.3,0.4,5.8,1.2c1.5,0.8,2.3,1.7,2.6,2.8
		c0.3,1.1,0.3,2.6-0.1,4.6L209.2,38.6"/>
	<path class="st3" d="M90,61.8h-5l0.2-1.2c0.1-0.6,0.1-0.9,0-1.1c-0.1-0.1-0.3-0.2-0.6-0.2c-0.3,0-0.6,0.1-0.8,0.3s-0.3,0.5-0.4,0.9
		c-0.1,0.5,0,1,0.1,1.2c0.1,0.3,0.6,0.6,1.4,1c2.2,1.1,3.5,2,4,2.8c0.5,0.7,0.6,1.9,0.4,3.5c-0.2,1.2-0.5,2-0.9,2.6s-1.1,1-2.2,1.4
		c-1,0.4-2.2,0.6-3.5,0.6c-1.4,0-2.6-0.2-3.6-0.6c-0.9-0.4-1.5-1-1.7-1.6c-0.2-0.7-0.2-1.6,0-2.8l0.2-1.1h5l-0.3,2
		c-0.1,0.6-0.1,1,0,1.2c0.1,0.2,0.3,0.3,0.7,0.3c0.4,0,0.6-0.1,0.8-0.3c0.2-0.2,0.3-0.5,0.4-1c0.1-1,0.1-1.6-0.2-1.9
		c-0.3-0.3-1-0.8-2.3-1.5c-1.2-0.7-2-1.2-2.4-1.5c-0.4-0.3-0.7-0.8-0.9-1.3c-0.2-0.6-0.2-1.3-0.1-2.1c0.2-1.3,0.5-2.2,1-2.7
		c0.5-0.6,1.2-1,2.1-1.4s2-0.5,3.3-0.5c1.4,0,2.5,0.2,3.5,0.5c0.9,0.4,1.5,0.8,1.7,1.3s0.3,1.5,0.1,2.8L90,61.8z M103.2,56.9
		l-5.5,10.4l-0.9,5.9h-4.9l0.9-5.9l-2.2-10.4h4.9c0.3,3.2,0.4,5.3,0.3,6.4c0.6-1.7,1.4-3.9,2.5-6.4L103.2,56.9L103.2,56.9z
		 M113.8,61.8h-5l0.2-1.2c0.1-0.6,0.1-0.9,0-1.1c-0.1-0.1-0.3-0.2-0.6-0.2c-0.3,0-0.6,0.1-0.8,0.3s-0.3,0.5-0.4,0.9
		c-0.1,0.5,0,1,0.1,1.2c0.1,0.3,0.6,0.6,1.4,1c2.2,1.1,3.5,2,4,2.8c0.5,0.7,0.6,1.9,0.4,3.5c-0.2,1.2-0.5,2-0.9,2.6s-1.1,1-2.2,1.4
		c-1,0.4-2.2,0.6-3.5,0.6c-1.4,0-2.6-0.2-3.6-0.6c-0.9-0.4-1.5-1-1.7-1.6c-0.2-0.7-0.2-1.6,0-2.8l0.2-1.1h5l-0.3,2
		c-0.1,0.6-0.1,1,0,1.2c0.1,0.2,0.4,0.3,0.7,0.3s0.6-0.1,0.8-0.3c0.2-0.2,0.3-0.5,0.4-1c0.1-1,0.1-1.6-0.2-1.9
		c-0.3-0.3-1-0.8-2.3-1.5c-1.2-0.7-2-1.2-2.4-1.5c-0.4-0.3-0.7-0.8-0.9-1.3c-0.2-0.6-0.2-1.3-0.1-2.1c0.2-1.3,0.5-2.2,1-2.7
		c0.5-0.6,1.2-1,2.1-1.4s2-0.5,3.3-0.5c1.4,0,2.5,0.2,3.5,0.5c0.9,0.4,1.5,0.8,1.7,1.3s0.3,1.5,0.1,2.8L113.8,61.8z M126.7,56.9
		l-0.5,3.3h-3.1l-2,13h-5.3l2-13h-3.2l0.5-3.3H126.7z M126.9,56.9h8.9l-0.5,3.3h-3.6l-0.5,3.1h3.3l-0.5,3.1h-3.3l-0.5,3.6h3.9
		l-0.5,3.3h-9.2L126.9,56.9z M153.3,56.9l-2.5,16.3h-4.7l1.7-11l-3.5,11H141l-0.3-10.7l-1.6,10.7h-4.7l2.5-16.3h6.9
		c0,1,0.1,2.1,0.1,3.5l0.1,4.1l2.4-7.6L153.3,56.9L153.3,56.9z M165,61.8h-5l0.2-1.2c0.1-0.6,0.1-0.9,0-1.1
		c-0.1-0.1-0.3-0.2-0.6-0.2c-0.3,0-0.6,0.1-0.8,0.3s-0.3,0.5-0.4,0.9c-0.1,0.5,0,1,0.1,1.2c0.1,0.3,0.6,0.6,1.4,1
		c2.2,1.1,3.5,2,4,2.8c0.5,0.7,0.6,1.9,0.4,3.5c-0.2,1.2-0.5,2-0.9,2.6c-0.4,0.5-1.1,1-2.2,1.4s-2.2,0.6-3.5,0.6
		c-1.4,0-2.6-0.2-3.6-0.6c-0.9-0.4-1.5-1-1.7-1.6c-0.2-0.7-0.2-1.6,0-2.8l0.2-1.1h5l-0.3,2c-0.1,0.6-0.1,1,0,1.2
		c0.1,0.2,0.3,0.3,0.7,0.3s0.6-0.1,0.8-0.3c0.2-0.2,0.3-0.5,0.4-1c0.1-1,0.1-1.6-0.2-1.9c-0.3-0.3-1-0.8-2.3-1.5
		c-1.2-0.7-2-1.2-2.4-1.5c-0.4-0.3-0.7-0.8-0.9-1.3c-0.2-0.6-0.2-1.3-0.1-2.1c0.2-1.3,0.5-2.2,1-2.7c0.5-0.6,1.2-1,2.1-1.4
		c0.9-0.3,2-0.5,3.3-0.5c1.4,0,2.5,0.2,3.5,0.5c0.9,0.4,1.5,0.8,1.7,1.3c0.2,0.5,0.3,1.5,0.1,2.8L165,61.8z M167.9,70l-0.2,1.5
		c-0.1,0.8-0.3,1.4-0.6,1.9s-0.8,0.9-1.4,1.3c-0.6,0.3-1.3,0.6-2,0.7l0.2-1.2c0.5-0.2,0.9-0.5,1-0.9H164l0.5-3.2L167.9,70L167.9,70z
		 M179.3,56.9l-2.5,16.3h-5.3l2.5-16.3H179.3z M192.6,56.9l-2.5,16.3h-4.7l-1.6-7.4l-1.1,7.4h-4.5l2.5-16.3h4.5l1.9,7.3l1.1-7.3
		H192.6z M205.3,64H200l0.4-2.8c0.1-0.8,0.1-1.3,0.1-1.5c-0.1-0.2-0.3-0.3-0.7-0.3c-0.4,0-0.7,0.1-0.9,0.4c-0.2,0.3-0.3,0.8-0.4,1.6
		l-1.1,7.5c-0.1,0.8-0.1,1.3-0.1,1.6c0.1,0.2,0.3,0.4,0.7,0.4c0.4,0,0.7-0.1,0.8-0.4c0.2-0.3,0.3-0.8,0.4-1.7l0.3-2h5.3l-0.1,0.6
		c-0.3,1.7-0.6,2.9-1,3.6c-0.4,0.7-1.2,1.3-2.3,1.9c-1.1,0.5-2.4,0.8-3.9,0.8c-1.6,0-2.8-0.2-3.8-0.7c-0.9-0.4-1.5-1.1-1.7-1.9
		c-0.2-0.8-0.2-2,0.1-3.6l0.7-4.8c0.2-1.2,0.4-2,0.6-2.6c0.2-0.6,0.6-1.1,1.2-1.7c0.6-0.5,1.4-1,2.3-1.3c0.9-0.3,2-0.5,3.1-0.5
		c1.6,0,2.8,0.3,3.8,0.7c0.9,0.5,1.5,1.1,1.7,1.8c0.2,0.7,0.2,1.8,0,3.4L205.3,64z M208.5,69.9l-0.5,3.3h-3.9l0.5-3.3H208.5"/>
	<path class="st3" d="M212.5,31.2v-3.5h1.5c0.1,0,0.3,0,0.4,0.1c0.1,0.1,0.3,0.2,0.3,0.3c0.1,0.1,0.2,0.2,0.2,0.4
		c0.1,0.1,0.1,0.3,0.1,0.4c0,0.2-0.1,0.4-0.2,0.6c-0.1,0.2-0.3,0.3-0.4,0.4l0.8,1.3h-0.7l-0.7-1.2h-0.6v1.2L212.5,31.2L212.5,31.2z
		 M213.7,26.2c0.9,0,1.6,0.4,2.2,0.9c0.6,0.6,0.9,1.4,0.9,2.3c0,0.9-0.4,1.7-0.9,2.3c-0.6,0.6-1.3,0.9-2.2,0.9
		c-0.9,0-1.6-0.4-2.2-0.9c-0.6-0.6-0.9-1.4-0.9-2.3c0-0.9,0.4-1.7,0.9-2.3C212.1,26.6,212.9,26.2,213.7,26.2L213.7,26.2z
		 M215.5,27.6c-0.4-0.5-1.1-0.8-1.8-0.8s-1.3,0.3-1.8,0.8c-0.5,0.5-0.7,1.1-0.7,1.8c0,0.7,0.3,1.4,0.7,1.8c0.5,0.5,1.1,0.8,1.8,0.8
		s1.3-0.3,1.8-0.8c0.5-0.5,0.7-1.1,0.7-1.8C216.2,28.7,215.9,28.1,215.5,27.6L215.5,27.6z M213.2,29.5h0.8c0.1,0,0.1,0,0.2,0
		c0.1,0,0.1-0.1,0.1-0.1c0-0.1,0.1-0.1,0.1-0.2c0-0.1,0-0.1,0-0.2s0-0.2,0-0.2s-0.1-0.1-0.1-0.2c0,0-0.1-0.1-0.1-0.1
		c-0.1,0-0.1,0-0.2,0h-0.8L213.2,29.5"/>
	<g>
		<path class="st2" d="M1.1,24.5h212.6L107.4,0L59.1,10.4V7.7H38.7V14L1.1,24.5z M107.4,5.5l16.9,16h-16.9V5.5z M110,5.5l30.9,16
			h-9.7L110,5.5z M112.4,4.7L159,21.5h-9.7L112.4,4.7z M114.8,4.1l70.8,17.4h-16.2L114.8,4.1"/>
	</g>
</g>
</svg>
