<svg xmlns="http://www.w3.org/2000/svg" xmlns:xlink="http://www.w3.org/1999/xlink" id="a" data-name="Layer 1" viewBox="0 0 222 109"><defs><clipPath id="b"><rect x="24.54" y="17.35" width="269.27" height="44.79" fill="none"></rect></clipPath><mask id="c" data-name="mask" x="24.54" y="17.35" width="268.87" height="44.79" maskUnits="userSpaceOnUse"><g id="d" data-name="mask0 1417 1216"><path d="M24.54,17.35h268.87v44.79H24.54V17.35Z" fill="#fff"></path></g></mask></defs><g clip-path="url(#b)"><g mask="url(#c)"><g><path d="M52.1,60.9l11.04-2.74s-4.75-32.15-4.78-32.37c-.03-.22-.22-.34-.38-.36-.16-.01-3.27-.06-3.27-.06,0,0-1.9-1.84-2.61-2.54v38.07Z" fill="#617792"></path><path d="M50.9,22.46s-.49.15-1.31.4c-.14-.44-.34-.99-.63-1.54-.93-1.77-2.28-2.7-3.92-2.7h0c-.11,0-.23.01-.34.02-.05-.06-.1-.12-.15-.17-.71-.76-1.63-1.14-2.73-1.1-2.12.06-4.22,1.59-5.93,4.3-1.2,1.91-2.12,4.31-2.38,6.17-2.43.75-4.13,1.28-4.17,1.29-1.23.39-1.27.42-1.42,1.58-.12.87-3.33,25.68-3.33,25.68l26.62,4.6V22.41c-.13,0-.25.03-.32.05ZM44.75,24.37c-1.41.44-2.95.91-4.49,1.39.43-1.66,1.26-3.32,2.27-4.4.38-.4.9-.85,1.52-1.11.59,1.22.71,2.95.7,4.12ZM41.87,18.78c.5-.01.91.1,1.27.33-.57.3-1.12.72-1.64,1.28-1.34,1.44-2.37,3.68-2.78,5.84-1.28.4-2.53.79-3.69,1.14.73-3.4,3.58-8.5,6.84-8.59ZM37.75,38.15c.14,2.26,6.1,2.76,6.44,8.06.26,4.17-2.21,7.03-5.78,7.25-4.28.27-6.64-2.26-6.64-2.26l.91-3.86s2.37,1.79,4.27,1.67c1.24-.08,1.68-1.09,1.64-1.8-.19-2.95-5.04-2.78-5.34-7.63-.26-4.08,2.42-8.22,8.34-8.6,2.28-.14,3.45.44,3.45.44l-1.35,5.06s-1.51-.69-3.3-.57c-2.63.17-2.65,1.82-2.63,2.24ZM46.16,23.93c-.02-1.07-.14-2.56-.64-3.85,1.61.3,2.4,2.12,2.73,3.2-.62.19-1.32.41-2.09.65Z" fill="#617792"></path><path d="M78.93,42.22c-1.35-.73-2.04-1.35-2.04-2.2,0-1.08.97-1.77,2.47-1.77,1.75,0,3.32.73,3.32.73l1.23-3.78s-1.13-.89-4.48-.89c-4.65,0-7.87,2.66-7.87,6.41,0,2.12,1.51,3.74,3.52,4.9,1.62.93,2.2,1.59,2.2,2.55s-.81,1.81-2.32,1.81c-2.24,0-4.36-1.16-4.36-1.16l-1.32,3.78s1.96,1.31,5.25,1.31c4.79,0,8.22-2.35,8.22-6.6,0-2.28-1.73-3.9-3.82-5.09Z" fill="#617792"></path><path d="M98,34.27c-2.35,0-4.21,1.12-5.63,2.82l-.08-.04,2.04-10.69h-5.32l-5.17,27.22h5.33l1.77-9.3c.7-3.52,2.51-5.67,4.21-5.67,1.2,0,1.66.81,1.66,1.97,0,.79-.08,1.58-.23,2.35l-2.01,10.64h5.33l2.08-11c.23-1.14.36-2.31.39-3.47,0-3.01-1.59-4.83-4.37-4.83Z" fill="#617792"></path><path d="M114.4,34.27c-6.41,0-10.65,5.79-10.65,12.24,0,4.13,2.55,7.45,7.33,7.45,6.29,0,10.54-5.63,10.54-12.23,0-3.82-2.24-7.45-7.22-7.45ZM111.78,49.86c-1.81,0-2.59-1.54-2.59-3.47,0-3.05,1.59-8.03,4.48-8.03,1.89,0,2.51,1.62,2.51,3.2,0,3.29-1.58,8.3-4.4,8.3h0Z" fill="#617792"></path><path d="M135.24,34.27c-3.6,0-5.64,3.18-5.64,3.18h-.08l.31-2.86h-4.71c-.23,1.93-.66,4.86-1.08,7.06l-3.7,19.48h5.33l1.47-7.87h.11s1.09.7,3.13.7c6.25,0,10.34-6.41,10.34-12.89,0-3.59-1.58-6.8-5.48-6.8ZM130.15,49.94c-.8.01-1.58-.26-2.2-.77l.89-4.98c.62-3.32,2.35-5.52,4.21-5.52,1.62,0,2.12,1.5,2.12,2.93,0,3.43-2.04,8.34-5.02,8.34Z" fill="#617792"></path><path d="M148.33,26.63c-.4,0-.8.08-1.18.23s-.71.38-1,.67c-.28.29-.51.63-.66,1-.15.38-.22.78-.22,1.18,0,1.59,1,2.66,2.51,2.66h.08c1.66,0,3.09-1.12,3.13-3.09,0-1.54-1.04-2.66-2.66-2.66Z" fill="#617792"></path><path d="M140.88,53.57h5.33l3.63-18.87h-5.36l-3.59,18.87Z" fill="#617792"></path><path d="M163.38,34.66h-3.7l.19-.89c.31-1.81,1.39-3.44,3.17-3.44.58,0,1.15.09,1.7.27l1.04-4.16s-.93-.46-2.89-.46-3.78.54-5.21,1.78c-1.82,1.54-2.66,3.78-3.09,6.02l-.15.89h-2.47l-.77,4.01h2.47l-2.82,14.9h5.33l2.81-14.9h3.67l.74-4.01Z" fill="#617792"></path><path d="M176.19,34.7s-3.33,8.39-4.82,12.97h-.08c-.1-1.47-1.31-12.97-1.31-12.97h-5.6l3.2,17.33c.08.39.04.62-.11.89-.62,1.2-1.66,2.35-2.89,3.2-1,.73-2.12,1.2-3.01,1.5l1.47,4.52c1.08-.23,3.32-1.12,5.22-2.9,2.43-2.28,4.67-5.79,6.99-10.58l6.52-13.97h-5.57Z" fill="#617792"></path></g></g></g><path d="M68.66,93.3l3.73-19.88c.47-2.49.82-4.71,1.05-6.42h1.6l-.58,3.77h.08c1.67-2.53,4.01-4.16,6.5-4.16,3.54,0,4.86,3.03,4.86,6.07,0,6.3-4.32,13.38-10.27,13.38-1.83,0-3.04-.43-3.74-.82h-.08l-1.47,8.05h-1.67ZM72.16,83.54c.86.66,2.1,1.05,3.62,1.05,4.94,0,8.37-7,8.37-11.79,0-2.22-.86-4.67-3.62-4.67s-6.11,3.35-7.16,8.99l-1.21,6.42Z" fill="#617792"></path><path d="M98.77,85.67c-.04-1.13.19-2.88.47-5.02h-.07c-2.14,4.12-4.52,5.41-6.97,5.41-2.83,0-4.55-2.33-4.55-5.68,0-6.34,4.55-13.77,11.79-13.77,1.32,0,2.8.23,3.77.54l-1.98,10.08c-.66,3.46-.89,6.46-.82,8.44h-1.64ZM101.26,68.4c-.43-.16-1.09-.27-2.26-.27-5.37,0-9.57,5.99-9.61,11.87-.04,2.41.66,4.59,3.19,4.59,3.04,0,6.46-4.55,7.35-9.38l1.32-6.81Z" fill="#617792"></path><path d="M104.8,85.67l2.37-12.57c.47-2.37.74-4.47.89-6.11h1.56c-.16,1.21-.31,2.45-.54,4.05h.08c1.17-2.49,3-4.44,5.33-4.44.23,0,.47.03.7.08l-.31,1.75c-.22-.05-.44-.08-.66-.08-2.45,0-5.18,3.7-5.95,7.82l-1.75,9.49h-1.71Z" fill="#617792"></path><path d="M122.27,62.87l-.82,4.13h4.4l-.31,1.44h-4.4l-2.06,11.13c-.23,1.25-.39,2.22-.39,3.23,0,1.09.51,1.75,1.67,1.75.62,0,1.01-.04,1.36-.16l.11,1.36c-.59.18-1.21.27-1.83.27-2.22,0-3.07-1.47-3.07-3.03,0-1.01.11-1.99.43-3.42l2.1-11.13h-2.69l.27-1.44h2.72l.62-3.35,1.87-.78Z" fill="#617792"></path><path d="M125.42,85.67l2.5-13.19c.38-1.81.66-3.64.86-5.49h1.56l-.51,3.81h.08c1.63-2.72,3.97-4.2,6.5-4.2,1.83,0,4.16,1.17,4.16,4.71,0,.93-.16,1.87-.35,2.88l-2.14,11.48h-1.67l2.18-11.48c.17-.9.26-1.81.27-2.72,0-1.95-.78-3.35-3.07-3.35-2.49,0-5.99,3.11-6.8,7.63l-1.83,9.92h-1.72Z" fill="#617792"></path><path d="M154.26,84.62c-.97.62-2.76,1.4-5.1,1.4-4.36,0-5.88-3.42-5.88-7,0-5.37,3.73-12.41,9.1-12.41,3.07,0,4.36,2.02,4.36,4.08,0,4.75-5.44,6.07-11.56,6.03-.19.86-.23,3.31.16,4.63.66,2.14,2.1,3.15,4.08,3.15s3.46-.74,4.32-1.25l.51,1.37ZM152.08,68.12c-2.88,0-5.49,3.11-6.62,7.12,4.86.04,9.53-.78,9.53-4.48,0-1.75-1.17-2.65-2.92-2.65Z" fill="#617792"></path><path d="M157.68,85.67l2.37-12.57c.47-2.37.74-4.47.89-6.11h1.56c-.16,1.21-.31,2.45-.55,4.05h.08c1.17-2.49,3-4.44,5.33-4.44.24,0,.47.03.7.08l-.31,1.75c-.22-.05-.44-.08-.66-.08-2.45,0-5.18,3.7-5.95,7.82l-1.75,9.49h-1.71Z" fill="#617792"></path><path d="M167.29,83.5c.98.65,2.13,1,3.31,1.01,2.45,0,4.08-1.75,4.08-3.86,0-1.87-.78-3-2.53-4.13-1.83-1.21-2.84-2.88-2.84-4.59,0-2.92,2.34-5.33,5.6-5.33,1.28,0,2.57.43,3.11.86l-.62,1.44c-.58-.35-1.6-.78-2.69-.78-2.26,0-3.74,1.56-3.74,3.5,0,1.75.97,2.72,2.53,3.74,1.79,1.21,2.88,2.92,2.88,4.79,0,3.77-2.76,5.88-5.95,5.88-1.67,0-3.15-.62-3.77-1.13l.63-1.41Z" fill="#617792"></path></svg>