<svg xmlns="http://www.w3.org/2000/svg" id="a" data-name="Layer 1" viewBox="0 0 222 109"><path d="M18.03,21.19h29.89l-2.74,8.64h-7.75v31.51h-9.7v-31.51h-9.68l-.02-8.64Z" fill="#617792"></path><path d="M96.88,21.19h30.58l-2.75,8.64h-8.42v31.51h-9.68v-31.51h-9.72l-.02-8.64Z" fill="#617792"></path><path d="M49.74,33.96h9.59v27.38h-9.51l-.07-27.38Z" fill="#617792"></path><path d="M63.13,21.08h9.57v18.7l9.49-9.27h11.42l-12,11.64,13.44,19.18h-10.55l-8.98-13.33-2.84,2.74v10.58h-9.57V21.08Z" fill="#617792"></path><path d="M161.18,21.08h9.68v18.7l9.48-9.27h11.42l-12,11.64,13.35,19.18h-10.55l-8.96-13.33-2.74,2.74v10.58h-9.59l-.09-40.26Z" fill="#617792"></path><path d="M54.54,30.83c2.66,0,4.82-2.16,4.82-4.82s-2.16-4.82-4.82-4.82-4.82,2.16-4.82,4.82,2.16,4.82,4.82,4.82Z" fill="#617792"></path><path d="M141.21,52.93c-4.4,0-7.97-3.57-7.97-7.97s3.57-7.97,7.97-7.97,7.97,3.57,7.97,7.97c-.01,4.4-3.57,7.96-7.97,7.97ZM141.21,28.57c-9.05,0-16.39,7.34-16.39,16.39s7.34,16.39,16.39,16.39,16.39-7.34,16.39-16.39c0-4.35-1.73-8.51-4.8-11.59-3.07-3.07-7.24-4.8-11.59-4.8Z" fill="#617792"></path><path d="M201.31,44.2c2.32,0,4.2-1.88,4.2-4.2s-1.88-4.2-4.2-4.2-4.2,1.88-4.2,4.2,1.88,4.2,4.2,4.2Z" fill="#617792"></path><path d="M201.31,56.39c2.32,0,4.2-1.88,4.2-4.2s-1.88-4.2-4.2-4.2-4.2,1.88-4.2,4.2,1.88,4.2,4.2,4.2Z" fill="#617792"></path><path d="M33.91,90.08h-1.84v-10.62c0-.84.05-1.87.15-3.08h-.04c-.18.71-.33,1.22-.47,1.53l-5.41,12.16h-.9l-5.4-12.07c-.15-.35-.31-.89-.47-1.62h-.04c.06.63.09,1.67.09,3.1v10.6h-1.79v-15.83h2.45l4.86,11.04c.38.85.62,1.48.73,1.9h.07c.32-.87.57-1.52.76-1.94l4.96-10.99h2.32v15.83Z" fill="#617792"></path><path d="M46.16,90.08h-1.81v-1.77h-.04c-.79,1.35-1.95,2.03-3.48,2.03-1.13,0-2.01-.3-2.65-.89-.63-.6-.95-1.39-.95-2.37,0-2.11,1.24-3.34,3.73-3.69l3.39-.47c0-1.92-.78-2.88-2.33-2.88-1.36,0-2.59.46-3.69,1.39v-1.85c1.11-.71,2.39-1.06,3.84-1.06,2.66,0,3.98,1.41,3.98,4.22v7.35ZM44.35,84.36l-2.73.37c-.84.12-1.47.33-1.9.63-.43.29-.64.82-.64,1.58,0,.55.2,1,.58,1.36.4.35.92.52,1.58.52.9,0,1.64-.31,2.22-.94.59-.63.88-1.43.88-2.39v-1.13Z" fill="#617792"></path><path d="M55.69,80.61c-.32-.24-.77-.36-1.37-.36-.77,0-1.42.36-1.94,1.09-.52.73-.77,1.72-.77,2.98v5.76h-1.81v-11.3h1.81v2.33h.04c.26-.79.65-1.41,1.18-1.85.53-.45,1.12-.67,1.78-.67.47,0,.83.05,1.08.15v1.88Z" fill="#617792"></path><path d="M67.26,90.08h-2.54l-4.99-5.43h-.04v5.43h-1.81v-16.73h1.81v10.61h.04l4.75-5.18h2.37l-5.24,5.45,5.65,5.85Z" fill="#617792"></path><path d="M78.42,84.88h-7.98c.03,1.26.37,2.23,1.02,2.91.65.68,1.54,1.03,2.67,1.03,1.27,0,2.44-.42,3.51-1.26v1.7c-.99.72-2.31,1.08-3.94,1.08s-2.85-.51-3.76-1.53c-.91-1.03-1.37-2.48-1.37-4.34,0-1.76.5-3.19,1.49-4.29,1-1.11,2.24-1.67,3.72-1.67s2.62.48,3.43,1.44c.81.96,1.21,2.28,1.21,3.98v.95ZM76.57,83.35c0-1.04-.26-1.86-.76-2.44-.49-.58-1.18-.87-2.06-.87s-1.58.31-2.17.92c-.6.61-.96,1.41-1.1,2.39h6.1Z" fill="#617792"></path><path d="M86.64,89.97c-.43.24-.99.35-1.69.35-1.98,0-2.97-1.1-2.97-3.31v-6.69h-1.94v-1.54h1.94v-2.76l1.81-.58v3.34h2.85v1.54h-2.85v6.37c0,.76.13,1.3.39,1.62.26.32.68.49,1.28.49.46,0,.85-.12,1.18-.38v1.55Z" fill="#617792"></path><path d="M90.21,75.91c-.32,0-.6-.11-.83-.33-.23-.22-.34-.5-.34-.84s.11-.62.34-.84c.23-.23.5-.34.83-.34s.61.11.84.34c.24.22.35.5.35.84s-.12.6-.35.83c-.23.23-.51.34-.84.34ZM91.09,90.08h-1.81v-11.3h1.81v11.3Z" fill="#617792"></path><path d="M104.37,90.08h-1.81v-6.45c0-2.4-.88-3.6-2.63-3.6-.9,0-1.66.34-2.25,1.03-.59.68-.88,1.53-.88,2.57v6.45h-1.81v-11.3h1.81v1.88h.04c.85-1.43,2.09-2.14,3.71-2.14,1.24,0,2.18.4,2.84,1.2.65.8.98,1.95.98,3.45v6.91Z" fill="#617792"></path><path d="M117.66,89.17c0,4.15-1.99,6.22-5.96,6.22-1.4,0-2.62-.27-3.66-.79v-1.81c1.27.71,2.49,1.06,3.64,1.06,2.78,0,4.17-1.48,4.17-4.44v-1.24h-.04c-.86,1.44-2.16,2.16-3.89,2.16-1.4,0-2.54-.5-3.4-1.5-.85-1.01-1.28-2.36-1.28-4.05,0-1.92.46-3.45,1.38-4.58.93-1.13,2.19-1.7,3.8-1.7s2.65.61,3.39,1.83h.04v-1.57h1.81v10.4ZM115.85,84.97v-1.67c0-.9-.31-1.67-.92-2.31-.6-.64-1.36-.96-2.26-.96-1.12,0-1.99.41-2.63,1.23-.63.81-.95,1.95-.95,3.41,0,1.26.3,2.27.91,3.02.61.75,1.42,1.13,2.42,1.13s1.84-.36,2.47-1.08c.64-.72.96-1.64.96-2.77Z" fill="#617792"></path><path d="M130.07,84.1v5.98h-1.85v-15.83h4.35c1.69,0,3,.41,3.93,1.24.93.82,1.4,1.99,1.4,3.49s-.52,2.73-1.56,3.69c-1.03.96-2.42,1.43-4.18,1.43h-2.09ZM130.07,75.93v6.49h1.94c1.28,0,2.26-.29,2.93-.87.68-.59,1.01-1.42,1.01-2.48,0-2.09-1.24-3.13-3.71-3.13h-2.17Z" fill="#617792"></path><path d="M148.19,90.08h-1.81v-1.77h-.04c-.79,1.35-1.95,2.03-3.48,2.03-1.13,0-2.01-.3-2.65-.89-.63-.6-.95-1.39-.95-2.37,0-2.11,1.24-3.34,3.73-3.69l3.39-.47c0-1.92-.78-2.88-2.33-2.88-1.36,0-2.59.46-3.69,1.39v-1.85c1.11-.71,2.39-1.06,3.84-1.06,2.66,0,3.98,1.41,3.98,4.22v7.35ZM146.38,84.36l-2.73.37c-.84.12-1.47.33-1.9.63-.43.29-.64.82-.64,1.58,0,.55.19,1,.58,1.36.4.35.92.52,1.58.52.9,0,1.64-.31,2.22-.94.59-.63.88-1.43.88-2.39v-1.13Z" fill="#617792"></path><path d="M157.72,80.61c-.32-.24-.77-.36-1.37-.36-.77,0-1.42.36-1.94,1.09-.51.73-.77,1.72-.77,2.98v5.76h-1.81v-11.3h1.81v2.33h.04c.26-.79.65-1.41,1.18-1.85.53-.45,1.12-.67,1.78-.67.47,0,.83.05,1.08.15v1.88Z" fill="#617792"></path><path d="M165.15,89.97c-.43.24-.99.35-1.69.35-1.98,0-2.97-1.1-2.97-3.31v-6.69h-1.94v-1.54h1.94v-2.76l1.81-.58v3.34h2.85v1.54h-2.85v6.37c0,.76.13,1.3.39,1.62.26.32.68.49,1.28.49.46,0,.85-.12,1.18-.38v1.55Z" fill="#617792"></path><path d="M177.18,90.08h-1.81v-6.45c0-2.4-.88-3.6-2.63-3.6-.91,0-1.66.34-2.25,1.03-.59.68-.88,1.53-.88,2.57v6.45h-1.81v-11.3h1.81v1.88h.04c.85-1.43,2.09-2.14,3.71-2.14,1.24,0,2.18.4,2.84,1.2.65.8.98,1.95.98,3.45v6.91Z" fill="#617792"></path><path d="M189.91,84.88h-7.98c.03,1.26.37,2.23,1.02,2.91.65.68,1.54,1.03,2.67,1.03,1.27,0,2.44-.42,3.51-1.26v1.7c-.99.72-2.31,1.08-3.94,1.08s-2.85-.51-3.76-1.53c-.91-1.03-1.37-2.48-1.37-4.34,0-1.76.5-3.19,1.49-4.29,1-1.11,2.24-1.67,3.72-1.67s2.62.48,3.43,1.44c.81.96,1.21,2.28,1.21,3.98v.95ZM188.06,83.35c0-1.04-.26-1.86-.76-2.44-.49-.58-1.18-.87-2.06-.87s-1.58.31-2.17.92c-.6.61-.96,1.41-1.1,2.39h6.1Z" fill="#617792"></path><path d="M198.78,80.61c-.32-.24-.77-.36-1.37-.36-.77,0-1.42.36-1.94,1.09-.51.73-.77,1.72-.77,2.98v5.76h-1.81v-11.3h1.81v2.33h.04c.26-.79.65-1.41,1.18-1.85.53-.45,1.12-.67,1.78-.67.47,0,.83.05,1.08.15v1.88Z" fill="#617792"></path><path d="M200.28,89.67v-1.94c.99.73,2.07,1.09,3.26,1.09,1.59,0,2.38-.53,2.38-1.59,0-.3-.07-.56-.21-.76-.13-.21-.32-.4-.55-.56-.23-.16-.5-.31-.82-.43-.31-.13-.64-.27-1-.41-.5-.2-.94-.4-1.32-.6-.38-.21-.69-.43-.95-.68-.25-.26-.44-.55-.57-.87-.12-.32-.19-.7-.19-1.14,0-.53.12-1,.36-1.4.24-.41.57-.75.97-1.03.4-.28.86-.49,1.38-.63.52-.14,1.06-.21,1.61-.21.98,0,1.85.17,2.63.51v1.83c-.83-.54-1.79-.82-2.87-.82-.34,0-.64.04-.92.12-.27.07-.51.18-.71.32-.19.14-.34.31-.45.51-.1.19-.15.4-.15.64,0,.29.05.54.15.74.11.2.27.38.47.53.21.15.46.29.75.42.29.12.63.26,1,.41.5.19.95.39,1.35.6.4.2.74.43,1.01.68.28.25.49.54.64.87.15.33.23.72.23,1.18,0,.56-.12,1.04-.38,1.46-.24.41-.57.75-.98,1.03-.41.27-.89.47-1.42.61-.54.13-1.1.2-1.69.2-1.16,0-2.17-.22-3.02-.67Z" fill="#617792"></path></svg>