<svg xmlns="http://www.w3.org/2000/svg" id="a" data-name="Layer 1" viewBox="0 0 117 40"><path d="M57.11,22.66c-.65-2.99-8.84-5.02-8.39-6.75.59-2.26,8.84-3.77,8.91-3.53.1.35-1.87,1.2-2.12,1.38s-.13.63.32.7c.44.07,2.02-1.03,2.27-1.39.25-.36.68-1.43-.82-1.53-4.12-.17-9.71,2.38-9.67,4.2.04,1.83,1.62,2.41,4.35,3.92,2.73,1.51,4.18,2.24,4.37,3.1.18,1.13-4.25,2.75-7.87,2.66-3.06-.07-2.64-2.66-2.64-2.66-.6.32-.45,1.55.08,2.23.63.81,1.5,1.13,3.3,1.13,2.29-.07,3.93-.56,5.17-1.03,2.21-.83,2.95-1.85,2.74-2.43Z" fill="#617792"></path><path d="M108.46,18.6l-.18-.08s-.08-.01-.12.01c-.24.18-1.25.92-2.21,1.61-.98.7-1.89,1.37-1.99,1.16-.24-.55,1.1-2.31.39-2.65-.05-.03-.11-.03-.18-.03.06-.27.13-.97-.87-1.07-1.43-.14-2.33.68-2.72,1.57-.86.82-2.01,1.87-2.21,1.71-.27-.21.31-1.85-.23-2.23-.41-.29-1.78,1.34-2.04,1.34s.5-1.47-.18-1.46c-.09,0-.2.14-.31.35-.75.6-3.64,2.87-3.81,2.47-.24-.55,1.1-2.31.39-2.65-.05-.03-.11-.03-.18-.03.06-.27.13-.97-.87-1.07-1.4-.14-2.29.65-2.69,1.52-.45.29-1.39.95-2.47,1.8-.05-1.68-.51-2.32-1.12-2.43-1.37-.23-3.04,3.38-3.47,3.22-.58-.22.5-2.87.5-2.87,0,0-.62-.35-.96-.09h0s-3.79,3.06-3.99,2.6c-.24-.55,1.1-2.31.39-2.65-.05-.03-.11-.03-.18-.03.06-.27.13-.97-.87-1.07-2.79-.28-3.58,3.13-2.42,3.52.96.32,2.09-.96,2.5-1.48.03-.03.08,0,.06.04-.22.64-.69,2.32.51,2.35,1.08.03,3.22-2.11,3.73-2.63-.21,1.09-.32,3.43.86,3.22,1.48-.27,2-3.28,3.16-3.62.57-.16.75.9.68,2.41-1.68,1.38-3.54,3.09-4.38,4.49-1.65,2.76-2.81,5.59-1.21,6.49,1.79.95,4.68-1.37,5.66-6.56.34-1.78.5-3.16.53-4.22,1.01-.89,1.86-1.54,2.26-1.84-.11.64.05,1.2.48,1.35.96.32,2.09-.96,2.5-1.48.03-.03.08,0,.06.04-.22.64-.69,2.32.51,2.35.97.02,2.78-1.68,3.52-2.42-.19.54-.23,1.12-.24,1.22-.02.2.24.69.52.68s1.48-1.72,1.76-1.9c.58-.38-.23,1.74,1.08,1.75.44,0,1.27-.7,1.92-1.32-.03.52.14.95.51,1.07.96.32,2.09-.96,2.5-1.48.03-.03.08,0,.06.04-.22.64-.69,2.32.51,2.35,1.09.03,3.9-2.58,4.53-3.18.06-.06.04-.16-.03-.19ZM74.09,20.39c-.39-.4,1.05-2.06,1.9-2.14.79-.08.97.35.99.41-.91.29-2.56,2.08-2.89,1.74ZM84.19,27.39c-1.07,2.85-3.34,5.25-4.33,4.33-.76-.99.22-2.9,1.26-4.51,1.12-1.93,2.76-3.69,4.21-5.05-.16,1.71-.59,3.74-1.14,5.23ZM88.95,20.39c-.39-.4,1.05-2.06,1.9-2.14.79-.08.97.35.99.41-.91.29-2.56,2.08-2.89,1.74ZM101.1,20.39c-.39-.4,1.05-2.06,1.9-2.14.79-.08.97.35.99.41-.91.29-2.56,2.08-2.89,1.74Z" fill="#617792"></path><path d="M73.29,14.54c4.13-.16,9.82-.24,9.82-.24-.48-.6-4.46-.45-7.64-.41-.64,0-1.29.03-1.91.05.54-1.18.93-1.98.93-1.98,0,0-.29-.57-.67-.41-.17.08-.69,1.21-1.21,2.43-2.04.1-3.67.25-3.94.37-.39.18-.14.78.23.76.37-.02.35-.28.35-.28.43-.1,1.61-.18,3.11-.25-.53,1.27-.99,2.46-.99,2.46,0,0-.25.62-.53,1.45-.76.75-2.59,2.52-2.84,2.32-.27-.21.31-1.85-.23-2.23-.41-.29-1.78,1.34-2.04,1.34s.5-1.47-.18-1.46c-.09,0-.2.14-.31.35-.75.6-3.64,2.87-3.81,2.47-.24-.55,1.1-2.31.39-2.65-.05-.03-.11-.03-.18-.03.06-.27.13-.97-.87-1.07-2.79-.28-3.58,3.13-2.42,3.52.96.32,2.09-.96,2.5-1.48.03-.03.08,0,.06.04-.22.64-.69,2.32.51,2.35.97.02,2.78-1.68,3.52-2.42-.19.54-.26,1.12-.27,1.22-.02.2.29.72.55.67.27-.05,1.48-1.72,1.76-1.9.58-.38-.23,1.74,1.08,1.75.57,0,1.81-1.19,2.45-1.83-.13.41-.24.83-.33,1.22-.37,1.61-.46,3.25.43,3.61.9.36,1.91-.62,2.01-.98.09-.31-.26-.46-.26-.46-.51,1-2.26,2.4-1.84-.63.26-1.86,1.69-5.3,2.76-7.69ZM58.56,20.39c-.39-.4,1.05-2.06,1.9-2.14.79-.08.97.35.99.41-.91.29-2.56,2.08-2.89,1.74Z" fill="#617792"></path><path d="M40.18,18.38c-.22.08-1.76,1.07-3.51,2.49-.05-1.69-.51-2.33-1.12-2.44-1.37-.23-3.11,3.41-3.55,3.28-.56-.17.58-2.93.58-2.93,0,0-.3-.17-.59-.19-.02,0-.04,0-.06,0-.01,0-.02,0-.03,0-.07,0-.15.02-.21.05-.08.04-.14.1-.19.2-.57.58-1.86,1.77-2.02,1.91-.6.48-1.22.77-1.49.4-.35-.27-.08-2.03.12-2.58.87-.32,5.7-7.77,5.11-9.6-.14-.5-.51-.61-.72-.6h-.03c-.82.1-1.51,1.3-2.11,2.31-1.32,2.2-1.99,4.13-2.68,6.55-.04.19-.1.42-.16.68-.53-.34-1.22-.41-1.72-.13-.73.42-1.18,1.12-1.37,1.67-.65.5-1.43,1.01-2.02,1.1-.15-.02-.18-.12-.24-.81-.05-.54-.56-1.1-1.13-.59-.58.48-1.23,1.42-1.79,1.5-.4-.02.38-1.5.7-1.7.18-.22-.1-.42-.36-.41-.11,0-.22.05-.28.16-.24.39-.65,1.04-.71,1.38-.11.61.22.96.79,1.14.58.18,2.05-1.38,2.05-1.38,0,0,.17.72.69,1.04.55.35,1.46-.17,2.21-.77.15.85.63,1.03,1.26.84.48-.15,1.08-.72,1.59-1.34-.03.35-.03.68.02.99.15.89.61,1.33,1.41,1.15,1.14-.25,1.9-1.12,2.67-2.11-.17,1.15-.17,3.01.93,2.87,1.34-.16,2-3.28,3.16-3.61.57-.17.76.91.69,2.43-1.6,1.34-3.18,3.05-4.27,4.6-1.96,2.78-2.93,5.46-1.32,6.37,1.79.95,4.68-1.36,5.66-6.56.33-1.76.5-3.13.53-4.18,1.81-1.59,3.3-2.6,3.3-2.6,0,0,.66-.78.21-.62ZM29.42,14.61c.7-1.7,2.57-5.45,3.19-5.5h.02s.02,0,.04,0c1-.15-3.05,7.28-4.25,8.32,0,0-.02,0-.02.02.4-1.22.84-2.38,1.03-2.84ZM25.81,20.1c-.75.6-.91.26-.7-.29.2-.55.65-1.36,1.38-1.63.31-.11.8.3.74.58-.47.49-.88.88-1.42,1.34ZM34.86,27.39c-1.06,2.85-3.34,5.25-4.33,4.33-.76-.99.22-2.9,1.26-4.51,1.09-1.87,2.7-3.61,4.21-5.01-.16,1.7-.59,3.72-1.14,5.19Z" fill="#617792"></path><path d="M12.99,19.27c-.5-.67-.73-1.17-.48-1.3,1.05-.36,7.09-.79,8.07-3.97.99-3.24-3.64-4.13-8.28-2.63-1.85.59-3.29,1.98-3.08,2.54.21.56.94.35,1.04,0,0,0-.13-.17-.06-.27.04-.06.92-.99,2.69-1.59-.35.96-1.46,4.01-2.5,6.5-1.01,2.41-2.04,6.04-1.62,7.19.12.32.46.51.76.41s.39-.28.44-.42c.02-.07-.05-.14-.12-.12-.07.02-.15.04-.23.05-.14,0-.26-.1-.28-.24-.33-2.26,4.2-12.3,4.49-12.9.18-.37.23-.62.24-.78.8-.16,1.74-.25,2.81-.19,4.48.23,3.77,2.86,1.18,4.36-2.26,1.31-5.59,1.19-6.1,1.68-.5.49-.57,1.31,1.27,2.91,1.8,1.56,3.97,3.16,6.55,3.65,0,0-3.32-1.53-5.72-3.69-.39-.35-.75-.74-1.07-1.16Z" fill="#617792"></path><path d="M40.78,29.66c-.29-.24-.68-.36-1.18-.36h-1.16v.19l.24.02c.07,0,.1.04.1.1v2.4c0,.06-.03.09-.1.1l-.24.02v.19h1.25c.53,0,.93-.15,1.2-.46.24-.27.36-.62.36-1.05,0-.5-.16-.88-.47-1.14ZM39.6,32.1h-.37s0-2.59,0-2.59h.35c.78,0,1.17.43,1.17,1.3s-.38,1.28-1.15,1.29Z" fill="#617792"></path><path d="M46.8,32.01c-.01.06-.04.09-.08.09h-1.15v-1.24h.68s.07.03.08.08l.04.31h.23v-1h-.23l-.04.31c0,.05-.03.08-.08.08h-.68v-1.12h.98s.07.03.08.09l.06.37h.27v-.67h-2.19v.19l.24.02c.07,0,.1.04.1.1v2.4c0,.06-.03.09-.1.1l-.24.02v.19h2.34v-.75h-.25l-.08.45Z" fill="#617792"></path><path d="M51.81,30.59c-.42-.16-.62-.36-.62-.6,0-.15.05-.28.16-.37.1-.09.25-.14.42-.14s.31.03.4.09c.04.02.06.05.07.08l.07.43h.26v-.7c-.29-.09-.55-.14-.79-.14-.3,0-.55.08-.74.23-.2.16-.3.37-.3.63,0,.21.07.38.21.51.09.09.25.19.48.3.29.14.46.22.52.27.18.12.27.27.27.42s-.06.29-.18.38c-.12.09-.28.14-.48.14-.16,0-.31-.03-.45-.09-.05-.02-.07-.05-.08-.1l-.06-.51h-.28v.8c.23.1.5.15.8.15.4,0,.7-.09.91-.28.19-.16.28-.37.28-.62,0-.21-.07-.39-.22-.53-.13-.12-.34-.24-.63-.35Z" fill="#617792"></path><path d="M56.21,29.49l.27.02c.06,0,.09.04.09.09v2.4c0,.06-.03.09-.09.1l-.27.02v.19h1.19v-.19l-.27-.02c-.06,0-.09-.04-.09-.1v-2.4c0-.06.03-.09.09-.09l.27-.02v-.2h-1.19v.2Z" fill="#617792"></path><path d="M62.61,31.05l.3.02c.06,0,.09.04.09.09v.9s-.04,0-.13.03c-.1.02-.18.03-.26.03-.36,0-.64-.12-.84-.35-.21-.24-.31-.57-.31-.99s.1-.73.31-.96c.2-.22.46-.33.79-.33.16,0,.31.03.47.1.05.02.08.06.09.11l.07.4h.27v-.73c-.35-.09-.64-.14-.88-.14-.5,0-.9.14-1.19.42-.29.28-.44.66-.44,1.14,0,.44.14.8.41,1.1.29.32.68.47,1.16.47.3,0,.62-.05.95-.16v-1.04c0-.06.03-.09.09-.09l.23-.02v-.2h-1.17v.2Z" fill="#617792"></path><path d="M69.25,29.49l.26.02c.06,0,.09.04.09.1v2.07l-1.5-2.26v-.11h-.89v.19l.27.02c.07,0,.1.04.1.1v2.4c0,.06-.03.09-.1.1l-.26.02v.19h.97v-.19l-.26-.02c-.06,0-.09-.04-.09-.1v-2.21l1.68,2.52h.35v-2.71c0-.06.03-.09.09-.1l.25-.02v-.19h-.96v.19Z" fill="#617792"></path><path d="M74.86,30.59c-.42-.16-.62-.36-.62-.6,0-.15.05-.28.16-.37.1-.09.25-.14.42-.14s.31.03.4.09c.04.02.06.05.07.08l.07.43h.26v-.7c-.29-.09-.55-.14-.79-.14-.3,0-.55.08-.74.23-.2.16-.3.37-.3.63,0,.21.07.38.21.51.09.09.25.19.48.3.29.14.46.22.52.27.18.12.27.27.27.42s-.06.29-.18.38c-.12.09-.28.14-.48.14-.16,0-.31-.03-.45-.09-.05-.02-.07-.05-.08-.1l-.06-.51h-.28v.8c.23.1.5.15.8.15.4,0,.7-.09.91-.28.19-.16.28-.37.28-.62,0-.21-.07-.39-.22-.53-.13-.12-.34-.24-.63-.35Z" fill="#617792"></path></svg>