<svg xmlns="http://www.w3.org/2000/svg" id="a" data-name="Layer 1" viewBox="0 0 117 40"><g><path d="M41.47,9.06h2.17l4.06,18.17h-2.6l-.77-3.9h-3.55l-.77,3.9h-2.6l4.06-18.17ZM42.57,14.29h-.05l-1.28,6.58h2.6l-1.28-6.58Z" fill="#617792"></path><path d="M48.97,9.06h2.5l3.34,9.62h.05l3.32-9.62h2.53v18.17h-2.6v-11.05h-.05l-2.58,7.81h-1.3l-2.55-7.81h-.05v11.05h-2.6V9.06Z" fill="#617792"></path><path d="M66.04,9.06h2.17l4.06,18.17h-2.6l-.77-3.9h-3.55l-.77,3.9h-2.6l4.06-18.17ZM67.14,14.29h-.05l-1.28,6.58h2.6l-1.28-6.58Z" fill="#617792"></path><path d="M73.55,9.06h3.85c1.48,0,2.61.41,3.39,1.24.78.83,1.17,1.98,1.17,3.46v8.5c0,1.7-.41,2.96-1.24,3.76-.83.81-2.01,1.21-3.56,1.21h-3.62V9.06ZM76.15,24.78h1.2c.73,0,1.25-.18,1.56-.55.31-.37.46-.94.46-1.72v-8.75c0-.71-.14-1.27-.43-1.66-.29-.39-.82-.59-1.58-.59h-1.2v13.27Z" fill="#617792"></path><path d="M84.27,13.35c0-.73.13-1.38.38-1.94.26-.56.59-1.02,1.01-1.39s.88-.64,1.4-.83c.52-.19,1.04-.28,1.57-.28s1.05.09,1.57.28c.52.19.99.46,1.4.83.42.37.75.83,1.01,1.39.26.56.38,1.21.38,1.94v9.6c0,.75-.13,1.4-.38,1.95-.26.55-.59,1.01-1.01,1.38-.42.37-.88.64-1.4.83-.52.19-1.04.28-1.57.28s-1.05-.09-1.57-.28-.99-.46-1.4-.83c-.42-.37-.75-.82-1.01-1.38-.26-.55-.38-1.2-.38-1.95v-9.6ZM86.87,22.94c0,.63.17,1.09.52,1.39s.76.45,1.24.45.89-.15,1.24-.45c.35-.3.52-.76.52-1.39v-9.6c0-.63-.17-1.09-.52-1.39-.35-.3-.76-.45-1.24-.45s-.89.15-1.24.45c-.35.3-.52.76-.52,1.39v9.6Z" fill="#617792"></path><path d="M95.29,9.06h4.19c3.06,0,4.59,1.78,4.59,5.33,0,1.06-.17,1.96-.5,2.72-.33.76-.92,1.37-1.75,1.82l2.81,8.29h-2.76l-2.42-7.76h-1.56v7.76h-2.6V9.06ZM97.9,17.17h1.48c.46,0,.83-.06,1.1-.19s.48-.31.63-.55c.14-.24.24-.53.29-.88.05-.35.08-.75.08-1.21s-.02-.86-.08-1.21c-.05-.35-.16-.65-.32-.89-.16-.25-.39-.43-.68-.55-.29-.12-.67-.18-1.15-.18h-1.35v5.67Z" fill="#617792"></path></g><g><path d="M82.36,29.44h1.02c.74,0,1.11.43,1.11,1.29,0,.26-.04.48-.12.66s-.22.33-.42.44l.68,2.01h-.67l-.59-1.88h-.38v1.88h-.63v-4.41ZM82.99,31.41h.36c.11,0,.2-.02.27-.05.07-.03.12-.08.15-.13.03-.06.06-.13.07-.21.01-.08.02-.18.02-.29s0-.21-.02-.29c-.01-.08-.04-.16-.08-.22s-.09-.1-.16-.13-.16-.04-.28-.04h-.33v1.37Z" fill="#617792"></path><path d="M84.96,30.48c0-.18.03-.33.09-.47s.14-.25.24-.34.21-.16.34-.2c.13-.05.25-.07.38-.07s.26.02.38.07c.13.05.24.11.34.2.1.09.18.2.24.34.06.14.09.29.09.47v2.33c0,.18-.03.34-.09.47-.06.13-.14.25-.24.33-.1.09-.21.16-.34.2-.13.05-.25.07-.38.07s-.26-.02-.38-.07c-.13-.05-.24-.11-.34-.2s-.18-.2-.24-.33c-.06-.13-.09-.29-.09-.47v-2.33ZM85.59,32.81c0,.15.04.27.13.34.08.07.19.11.3.11s.22-.04.3-.11c.09-.07.13-.18.13-.34v-2.33c0-.15-.04-.27-.13-.34-.08-.07-.18-.11-.3-.11s-.22.04-.3.11c-.08.07-.13.18-.13.34v2.33Z" fill="#617792"></path><path d="M87.6,30.48c0-.18.03-.33.09-.47s.14-.25.24-.34.21-.16.34-.2c.13-.05.25-.07.38-.07s.26.02.38.07c.13.05.24.11.34.2.1.09.18.2.24.34.06.14.09.29.09.47v2.33c0,.18-.03.34-.09.47-.06.13-.14.25-.24.33-.1.09-.21.16-.34.2-.13.05-.25.07-.38.07s-.26-.02-.38-.07c-.13-.05-.24-.11-.34-.2s-.18-.2-.24-.33c-.06-.13-.09-.29-.09-.47v-2.33ZM88.23,32.81c0,.15.04.27.13.34.08.07.19.11.3.11s.22-.04.3-.11c.09-.07.13-.18.13-.34v-2.33c0-.15-.04-.27-.13-.34-.08-.07-.18-.11-.3-.11s-.22.04-.3.11c-.08.07-.13.18-.13.34v2.33Z" fill="#617792"></path><path d="M90.27,29.44h1.88v.59h-1.25v1.34h1.09v.59h-1.09v1.88h-.63v-4.41Z" fill="#617792"></path><path d="M92.58,29.44h.63v4.41h-.63v-4.41Z" fill="#617792"></path><path d="M93.8,29.44h.61l.95,2.66h.01v-2.66h.63v4.41h-.59l-.97-2.65h-.01v2.65h-.63v-4.41Z" fill="#617792"></path><path d="M96.54,30.48c0-.18.03-.33.09-.47s.14-.25.24-.34.21-.16.34-.2c.13-.05.25-.07.38-.07s.26.02.38.07c.13.05.24.11.34.2.1.09.18.2.24.34.06.14.09.29.09.47v.22h-.63v-.22c0-.15-.04-.27-.13-.34-.08-.07-.18-.11-.3-.11s-.22.04-.3.11c-.08.07-.13.18-.13.34v2.33c0,.15.04.27.13.34.08.07.19.11.3.11s.22-.04.3-.11c.09-.07.13-.18.13-.34v-.83h-.5v-.56h1.13v1.39c0,.18-.03.34-.09.47-.06.13-.14.25-.24.33-.1.09-.21.16-.34.2-.13.05-.25.07-.38.07s-.26-.02-.38-.07c-.13-.05-.24-.11-.34-.2s-.18-.2-.24-.33c-.06-.13-.09-.29-.09-.47v-2.33Z" fill="#617792"></path><path d="M102.37,32.87c0,.14-.03.27-.08.39-.05.12-.12.23-.21.32-.09.09-.2.17-.32.22s-.25.08-.39.08c-.12,0-.24-.02-.37-.05s-.23-.09-.33-.17c-.1-.08-.18-.19-.24-.32-.06-.13-.1-.3-.1-.5v-2.43c0-.14.02-.28.07-.4.05-.12.12-.23.21-.32.09-.09.2-.16.32-.21s.27-.08.42-.08.28.03.4.08c.12.05.23.12.32.22.09.09.16.2.21.33s.08.27.08.42v.25h-.63v-.21c0-.12-.03-.23-.11-.32-.07-.09-.16-.14-.28-.14-.16,0-.26.05-.31.15-.05.1-.08.22-.08.37v2.25c0,.13.03.23.08.32s.16.13.3.13c.04,0,.09,0,.13-.02.05-.01.09-.04.13-.07s.07-.08.1-.14c.02-.06.04-.13.04-.22v-.22h.63v.27Z" fill="#617792"></path><path d="M102.79,30.48c0-.13,0-.25.02-.35.02-.11.05-.2.09-.28.07-.14.18-.25.32-.33.14-.08.31-.12.5-.12s.36.04.5.12c.14.08.25.19.32.33.05.08.08.18.09.28.02.11.02.23.02.35v1.03c0,.13,0,.25-.02.35s-.05.2-.09.28c-.07.14-.18.25-.32.33-.14.08-.31.12-.5.12s-.36-.04-.5-.12c-.14-.08-.25-.19-.32-.33-.05-.08-.08-.18-.09-.28s-.02-.22-.02-.35v-1.03ZM103.42,31.62c0,.12.03.21.08.27s.13.09.23.09.17-.03.23-.09.08-.15.08-.27v-1.23c0-.12-.03-.21-.08-.27s-.13-.09-.23-.09-.17.03-.23.09-.08.15-.08.27v1.23Z" fill="#617792"></path></g><rect x="103.43" y="32.55" width=".73" height="1.68" transform="translate(137.19 -70.41) rotate(90)" fill="#617792"></rect><g><path d="M33.69,15.23l-10.69-6.3s-.11,0-.11.06v11.86s.01.05.03.06l10.6,6.25c.11.06.24-.01.24-.14v-11.66c0-.06-.03-.11-.08-.14Z" fill="#617792"></path><path d="M11.47,15.23s-.08.08-.08.14v11.66c0,.12.13.2.24.14l10.6-6.25s.03-.04.03-.06v-11.86c0-.05-.06-.09-.11-.06l-10.69,6.3Z" fill="#617792"></path></g></svg>